<?xml version="1.0" encoding="UTF-8"?>
<svg version="1.1" xmlns="http://www.w3.org/2000/svg" width="768" height="1024">
<path d="M0 0 C253.44 0 506.88 0 768 0 C768 337.92 768 675.84 768 1024 C514.56 1024 261.12 1024 0 1024 C0 686.08 0 348.16 0 0 Z " fill="#FCFCFB" transform="translate(0,0)"/>
<path d="M0 0 C2.3125 0.5625 2.3125 0.5625 4.125 2.125 C6.22421283 6.43391054 5.63621386 10.456795 4.31640625 14.96484375 C-3.89733246 35.10965007 -15.72875943 51.98434145 -29.6875 68.5625 C-28.80384766 68.09263672 -28.80384766 68.09263672 -27.90234375 67.61328125 C-24.78851467 66.13599726 -22.12343631 65.74333875 -18.6875 65.5625 C-15.76403443 66.92678393 -13.95999091 68.29000909 -11.6875 70.5625 C-11.6875 71.8825 -11.6875 73.2025 -11.6875 74.5625 C-6.35555505 73.39916656 -1.69263515 71.81314895 3.234375 69.46484375 C5.29075582 68.57194155 7.08808376 67.86625432 9.3125 67.5625 C9.9725 68.2225 10.6325 68.8825 11.3125 69.5625 C11.2421875 71.52734375 11.2421875 71.52734375 10.3125 73.5625 C8.1953125 74.94140625 8.1953125 74.94140625 5.4375 76.125 C4.44363281 76.55554688 3.44976562 76.98609375 2.42578125 77.4296875 C-0.51540204 78.49987966 -3.31187272 79.14165864 -6.375 79.75 C-12.19347155 81.18401423 -14.27790202 84.29028981 -17.63671875 89.046875 C-21.37235899 93.62926036 -26.48574799 95.961624 -31.6875 98.5625 C-33.22773996 98.63200541 -34.77084988 98.64702357 -36.3125 98.625 C-37.12976563 98.61597656 -37.94703125 98.60695313 -38.7890625 98.59765625 C-39.41554688 98.58605469 -40.04203125 98.57445312 -40.6875 98.5625 C-41.5 96.4375 -41.5 96.4375 -41.6875 93.5625 C-36.54980446 85.12200019 -26.35775397 80.65224244 -17.6875 76.5625 C-18.0175 75.2425 -18.3475 73.9225 -18.6875 72.5625 C-21.36797713 72.07514052 -23.10575895 72.20021037 -25.4375 73.65234375 C-29.71001059 77.12375861 -32.23510794 80.65771589 -34.6875 85.5625 C-36.0075 85.2325 -37.3275 84.9025 -38.6875 84.5625 C-38.6875 83.2425 -38.6875 81.9225 -38.6875 80.5625 C-39.45835937 81.05621094 -40.22921875 81.54992187 -41.0234375 82.05859375 C-42.52777344 83.01958984 -42.52777344 83.01958984 -44.0625 84 C-45.06023437 84.63808594 -46.05796875 85.27617188 -47.0859375 85.93359375 C-51.2579416 88.54579451 -53.70153536 88.91239226 -58.6875 88.5625 C-60.625 87.4375 -60.625 87.4375 -61.6875 85.5625 C-61.73009685 83.56295367 -61.73355824 81.56196959 -61.6875 79.5625 C-62.45835937 80.05621094 -63.22921875 80.54992187 -64.0234375 81.05859375 C-65.52777344 82.01958984 -65.52777344 82.01958984 -67.0625 83 C-68.06023437 83.63808594 -69.05796875 84.27617188 -70.0859375 84.93359375 C-74.27701351 87.55773594 -77.7458404 88.41614561 -82.6875 87.5625 C-86.06934161 84.91584135 -87.87486817 82.38372385 -89.6875 78.5625 C-90.34105469 79.26826172 -90.34105469 79.26826172 -91.0078125 79.98828125 C-94.58258681 83.7255453 -97.69681129 86.82660827 -102.6875 88.5625 C-106.12145207 88.3283669 -107.23761158 88.01238842 -109.6875 85.5625 C-109.8125 82.9375 -109.8125 82.9375 -109.6875 80.5625 C-110.71230469 81.05621094 -111.73710937 81.54992187 -112.79296875 82.05859375 C-114.1535065 82.70602206 -115.51419139 83.35314121 -116.875 84 C-117.54853516 84.32548828 -118.22207031 84.65097656 -118.91601562 84.98632812 C-122.49394187 86.67929811 -125.72432994 88.01612121 -129.6875 88.5625 C-129.36394531 89.39523437 -129.04039062 90.22796875 -128.70703125 91.0859375 C-124.44692197 105.61274693 -129.25795989 121.46209656 -135.6875 134.5625 C-141.96146118 145.72874102 -141.96146118 145.72874102 -146.6875 148.5625 C-149.8125 148.5 -149.8125 148.5 -152.6875 147.5625 C-156.14757705 142.36911266 -155.18542851 135.63137638 -154.22998047 129.74267578 C-153.60051784 126.84674385 -152.88595822 123.98914244 -152.125 121.125 C-151.86122559 120.09745605 -151.59745117 119.06991211 -151.32568359 118.01123047 C-149.01643246 109.26569919 -146.1399764 100.76968579 -143.0078125 92.2890625 C-141.57618104 88.90722752 -141.57618104 88.90722752 -141.6875 86.5625 C-142.5228125 87.0575 -142.5228125 87.0575 -143.375 87.5625 C-146.07608329 88.73053602 -147.77287214 88.93617024 -150.6875 88.5625 C-152.5 87.3125 -152.5 87.3125 -153.6875 85.5625 C-153.6875 84.2425 -153.6875 82.9225 -153.6875 81.5625 C-154.36554688 81.995625 -155.04359375 82.42875 -155.7421875 82.875 C-161.47689588 86.30629366 -165.87861974 88.22946961 -172.59375 88.1640625 C-174.6875 87.5625 -174.6875 87.5625 -176.46875 85.7734375 C-177.6875 83.5625 -177.6875 83.5625 -177.6875 79.5625 C-178.43515625 80.11679687 -179.1828125 80.67109375 -179.953125 81.2421875 C-181.43039063 82.32886719 -181.43039063 82.32886719 -182.9375 83.4375 C-184.39929688 84.51644531 -184.39929688 84.51644531 -185.890625 85.6171875 C-189.90446258 88.40893487 -192.69897149 90.20205494 -197.6875 89.5625 C-199.5 88.5 -199.5 88.5 -200.6875 86.5625 C-201.54325056 81.80833024 -200.62828031 78.96910488 -198.125 75 C-194.3165128 69.72393971 -189.78654419 65.07805908 -183.6875 62.5625 C-179.1372251 62.80626473 -175.87330177 63.19970925 -172.6875 66.5625 C-172.22968098 69.24778464 -171.99277696 71.55901714 -171.9375 74.25 C-171.89302734 75.3028418 -171.89302734 75.3028418 -171.84765625 76.37695312 C-171.77712967 78.10485424 -171.73002932 79.8336832 -171.6875 81.5625 C-160.7307004 80.37183435 -154.20849367 74.56547884 -146.81640625 66.734375 C-143.75545136 63.61163937 -142.23108392 62.6151049 -137.8125 62.1875 C-133.68676814 62.26362051 -131.62813808 63.62186192 -128.6875 66.5625 C-129.6875 71.5625 -130.6875 76.5625 -131.6875 81.5625 C-123.69556293 81.2073028 -116.91126785 77.28479285 -110.875 72.1875 C-108.00609333 68.74481199 -105.31061063 65.19519273 -102.6875 61.5625 C-100.7075 62.0575 -100.7075 62.0575 -98.6875 62.5625 C-99.13548237 66.03436333 -100.22188415 68.8563602 -101.6875 72 C-103.31299573 75.5219074 -104.28828534 78.67015708 -104.6875 82.5625 C-98.2156766 78.68821116 -93.36223149 74.48482865 -88.6875 68.5625 C-87.0375 68.8925 -85.3875 69.2225 -83.6875 69.5625 C-82.6975 75.0075 -82.6975 75.0075 -81.6875 80.5625 C-76.457529 81.35836515 -73.88130966 80.37376305 -69.5 77.375 C-64.24845292 73.42042591 -60.93729776 69.24964608 -57.6875 63.5625 C-56.0375 63.8925 -54.3875 64.2225 -52.6875 64.5625 C-52.99494141 65.38041016 -52.99494141 65.38041016 -53.30859375 66.21484375 C-55.27425979 71.71682765 -56.22531602 76.7389819 -56.6875 82.5625 C-49.09080808 80.80094825 -42.86269785 77.48104445 -37.6875 71.5625 C-36.00214381 68.02118408 -35.11092554 64.41854391 -34.20654297 60.61181641 C-30.08603398 44.34297707 -19.50404032 4.082241 0 0 Z " fill="#0D0D0D" transform="translate(392.6875,434.4375)"/>
<path d="M0 0 C2.71026397 0.67756599 3.53941841 1.37488299 5.25 3.5625 C7.77775996 16.83893296 0.45169739 29.17456617 -6.56201172 39.81982422 C-11.98463549 47.77434302 -18.52018122 54.56397484 -25.49707031 61.14892578 C-29.78060598 65.26929138 -30.66996904 67.37106391 -30.8828125 73.19921875 C-30.88545231 74.5494791 -30.88270832 75.89975907 -30.875 77.25 C-30.87886719 77.93900391 -30.88273437 78.62800781 -30.88671875 79.33789062 C-31.17985914 82.73643379 -31.17985914 82.73643379 -29.75 85.5625 C-20.45240359 85.5625 -15.55190916 80.38773679 -9.2421875 74.08984375 C-7.38339747 72.22353317 -5.53567182 70.34961718 -3.71044922 68.45043945 C0.37643804 64.2392692 3.68025376 60.83782995 9.75 60.1875 C13.48445618 60.58762031 15.36315379 61.18509724 18.25 63.5625 C19.125 65.625 19.125 65.625 19.25 67.5625 C18.92 68.2225 18.59 68.8825 18.25 69.5625 C18.3370204 71.27483688 18.49097162 72.98425406 18.6875 74.6875 C18.84025391 76.05261719 18.84025391 76.05261719 18.99609375 77.4453125 C19.07988281 78.14398437 19.16367187 78.84265625 19.25 79.5625 C28.98452829 78.94114713 36.58996088 73.42577975 43.25 66.5625 C45.20660051 63.84216727 45.20660051 63.84216727 46.25 61.5625 C47.9 61.8925 49.55 62.2225 51.25 62.5625 C50.74287967 66.28138239 50.13391785 69.29704239 48.25 72.5625 C49.0677923 71.7447077 49.87019519 70.91155133 50.66796875 70.07421875 C54.24027272 66.39151245 57.63568951 62.91874366 62.25 60.5625 C67.55 60.8625 67.55 60.8625 69.25 62.5625 C69.48427778 64.57844582 69.66336124 66.600974 69.8125 68.625 C69.93818359 70.28208984 69.93818359 70.28208984 70.06640625 71.97265625 C70.12699219 72.82730469 70.18757812 73.68195313 70.25 74.5625 C71.301875 73.69625 71.301875 73.69625 72.375 72.8125 C81.09533105 65.98789309 81.09533105 65.98789309 85.75 65.875 C89.25 66.5625 89.25 66.5625 91.0625 67.625 C92.79681976 70.45467961 93.95123476 73.51322508 95.25 76.5625 C98.60745917 78.24122958 102.38019954 77.72753357 106.0703125 77.71484375 C107.40922043 77.71193581 107.40922043 77.71193581 108.775177 77.70896912 C117.68738362 77.63888515 126.53486639 77.03858526 135.41622925 76.33706665 C140.12873916 75.96812949 144.84357671 75.63201392 149.55859375 75.296875 C150.9546862 75.19763481 150.9546862 75.19763481 152.37898254 75.09638977 C179.63721097 73.18924849 206.94168115 73.44087188 234.25 73.5625 C234.25 75.2125 234.25 76.8625 234.25 78.5625 C228.40480585 79.8128022 222.61170056 79.73409266 216.6640625 79.7734375 C214.286288 79.79944721 211.90852123 79.82617065 209.53076172 79.85351562 C207.65707916 79.87345581 207.65707916 79.87345581 205.74554443 79.89379883 C184.83549538 80.129888 163.99510549 80.69319536 143.125 82.0625 C142.11334778 82.12830261 141.10169556 82.19410522 140.05938721 82.26190186 C137.20324691 82.45039951 134.34761686 82.6447896 131.4921875 82.84375 C130.66761047 82.90104279 129.84303345 82.95833557 128.99346924 83.0173645 C125.29416665 83.28832763 121.61978857 83.6200221 117.94042969 84.0925293 C113.80828191 84.61875214 109.78366208 84.81890294 105.625 84.875 C104.53832031 84.91850586 104.53832031 84.91850586 103.4296875 84.96289062 C98.24216235 85.02397561 95.36934847 83.97247426 91.25 80.5625 C89.5 78 89.5 78 88.25 75.5625 C87.59 74.5725 86.93 73.5825 86.25 72.5625 C80.42352335 74.06694845 76.85299371 77.21097311 72.57421875 81.19335938 C71.0546875 82.54296875 71.0546875 82.54296875 68.25 84.5625 C65.91078888 84.42373324 64.89760039 84.21010039 63.25 82.5625 C63.15061137 80.79396708 63.12030777 79.02131725 63.125 77.25 C63.12113281 75.80173828 63.12113281 75.80173828 63.1171875 74.32421875 C63.23371833 71.90106295 63.55758352 69.87605031 64.25 67.5625 C56.21518651 72.03257229 50.26495611 78.95917945 45.25 86.5625 C43.27 86.0675 43.27 86.0675 41.25 85.5625 C41.125 78.8125 41.125 78.8125 42.25 76.5625 C41.38117188 77.11679687 40.51234375 77.67109375 39.6171875 78.2421875 C38.45333319 78.97428941 37.2892589 79.70604169 36.125 80.4375 C35.27035156 80.98470703 35.27035156 80.98470703 34.3984375 81.54296875 C29.496383 84.60675281 25.38982196 86.59876817 19.5625 86.5 C16.25 85.5625 16.25 85.5625 14.375 83.1875 C13.25 80.5625 13.25 80.5625 12.25 77.5625 C11.57453125 78.11679687 10.8990625 78.67109375 10.203125 79.2421875 C9.31109375 79.96664062 8.4190625 80.69109375 7.5 81.4375 C6.17742188 82.51644531 6.17742188 82.51644531 4.828125 83.6171875 C-0.57958199 87.69754823 -0.57958199 87.69754823 -5 87.1875 C-6.36125 86.878125 -6.36125 86.878125 -7.75 86.5625 C-8.08 85.2425 -8.41 83.9225 -8.75 82.5625 C-9.2346875 82.94921875 -9.719375 83.3359375 -10.21875 83.734375 C-15.67911456 87.97665823 -20.98238459 91.9715015 -27.9375 93.0625 C-31.49891507 92.42935954 -33.17923892 91.05981077 -35.75 88.5625 C-41.49337942 77.07574116 -34.70179465 58.3857423 -30.984375 47.12890625 C-15.95855795 3.26425049 -15.95855795 3.26425049 0 0 Z " fill="#0D0D0D" transform="translate(533.75,436.4375)"/>
<path d="M0 0 C3.6991072 3.27814343 8.25003556 7.3331669 8.8515625 12.4609375 C9.18187603 23.44820862 4.90520526 31.42600198 -2.38671875 39.4296875 C-18.62625086 56.47796125 -44.29895443 65.72793175 -67.38671875 66.4296875 C-67.38671875 67.0896875 -67.38671875 67.7496875 -67.38671875 68.4296875 C-66.29230469 68.80480469 -66.29230469 68.80480469 -65.17578125 69.1875 C-62.14343653 70.53804009 -60.23772686 72.10289528 -57.76171875 74.3046875 C-40.50790929 88.70221357 -16.59487857 103.31137368 6.6015625 102.66796875 C8.60860668 102.6407038 8.60860668 102.6407038 9.61328125 101.4296875 C11.2794524 101.38904918 12.9471622 101.3869665 14.61328125 101.4296875 C14.61328125 103.0796875 14.61328125 104.7296875 14.61328125 106.4296875 C4.00564449 111.73350588 -5.90435371 108.72461928 -16.7265625 105.34570312 C-31.23413869 100.35006933 -44.17280828 92.59012036 -56.38671875 83.4296875 C-57.10859375 82.88892578 -57.83046875 82.34816406 -58.57421875 81.79101562 C-64.59717636 77.26856915 -64.59717636 77.26856915 -67.24926758 75.22509766 C-69.94264993 73.1637688 -72.14436884 71.5104708 -75.38671875 70.4296875 C-76.34668219 73.45000522 -77.30438933 76.47103396 -78.26171875 79.4921875 C-78.53113281 80.33974609 -78.80054687 81.18730469 -79.078125 82.06054688 C-82.23956286 91.49011528 -82.23956286 91.49011528 -83.94921875 101.2421875 C-84.28526947 105.22678895 -84.28526947 105.22678895 -85.38671875 107.4296875 C-87.03671875 107.0996875 -88.68671875 106.7696875 -90.38671875 106.4296875 C-90.55702302 101.52345027 -90.07798314 97.52859094 -88.671875 92.83203125 C-88.31544922 91.61837891 -87.95902344 90.40472656 -87.59179688 89.15429688 C-87.21474609 87.90455078 -86.83769531 86.65480469 -86.44921875 85.3671875 C-85.70797781 82.87718123 -84.96959256 80.38632267 -84.234375 77.89453125 C-83.90445557 76.7974585 -83.57453613 75.70038574 -83.23461914 74.57006836 C-82.41350005 71.52887778 -81.85732608 68.5421568 -81.38671875 65.4296875 C-81.06036177 63.76164073 -80.72946281 62.09444436 -80.38671875 60.4296875 C-79.39671875 60.0996875 -78.40671875 59.7696875 -77.38671875 59.4296875 C-76.17901262 56.59710534 -76.17901262 56.59710534 -75.19921875 53.0546875 C-73.21304015 46.66779105 -70.89904494 40.47781387 -68.32421875 34.3046875 C-67.99591064 33.4998291 -67.66760254 32.6949707 -67.3293457 31.86572266 C-65.49353328 27.51202818 -63.58994265 23.98248372 -60.38671875 20.4296875 C-59.06671875 20.7596875 -57.74671875 21.0896875 -56.38671875 21.4296875 C-57.08000654 24.61154745 -58.17547357 27.42090694 -59.49609375 30.39453125 C-59.91906738 31.35415771 -60.34204102 32.31378418 -60.77783203 33.30249023 C-61.22626465 34.31384033 -61.67469727 35.32519043 -62.13671875 36.3671875 C-65.77740662 44.64790418 -69.28665652 52.92899054 -72.38671875 61.4296875 C-47.55289957 59.03250444 -24.35614006 52.69694452 -6.38671875 34.4296875 C-5.47599609 33.51703125 -5.47599609 33.51703125 -4.546875 32.5859375 C-0.05856635 27.75743919 2.13887244 22.81832187 3.05078125 16.3046875 C2.32093431 11.50855045 -0.12277871 8.53855591 -3.7109375 5.390625 C-17.56511397 -4.76236272 -40.42815367 -1.86633364 -56.44921875 0.5546875 C-76.80665226 4.08885823 -102.92113251 12.97786676 -115.38671875 30.4296875 C-117.01335276 33.68295551 -116.95755776 36.91452097 -116.38671875 40.4296875 C-115.25833225 42.78178771 -115.25833225 42.78178771 -113.82421875 45.0546875 C-112.06769474 47.97553599 -111.39994118 49.20049878 -111.19921875 52.6796875 C-113.37105463 57.70920217 -117.23524672 60.12876071 -122.13671875 62.1171875 C-131.87946385 65.26589986 -141.16790214 65.70465802 -151.36328125 65.625 C-152.78388264 65.62126124 -154.20448664 65.61841836 -155.62509155 65.61642456 C-159.33058017 65.60885589 -163.03590736 65.5892672 -166.74133301 65.5670166 C-170.53586647 65.54641077 -174.33042649 65.53739161 -178.125 65.52734375 C-185.54564582 65.50601356 -192.96615951 65.47196142 -200.38671875 65.4296875 C-200.38671875 63.7796875 -200.38671875 62.1296875 -200.38671875 60.4296875 C-199.62409729 60.42382126 -198.86147583 60.41795502 -198.07574463 60.41191101 C-190.83892785 60.35366681 -183.60244301 60.28141315 -176.36592484 60.19397259 C-172.64680456 60.14951293 -168.9277877 60.11020558 -165.20849609 60.08325195 C-161.6096827 60.05697218 -158.01127266 60.01640275 -154.4127121 59.96650124 C-152.39244294 59.94204304 -150.37201693 59.93185216 -148.35162354 59.92204285 C-137.67900649 59.75443311 -128.04952787 58.04148276 -118.38671875 53.4296875 C-118.81064195 50.03830188 -119.80597695 47.56108711 -121.44921875 44.6171875 C-123.57010885 40.46117859 -124.42548834 37.04146626 -123.38671875 32.4296875 C-121.04763361 27.26261008 -117.60915057 23.18296023 -113.38671875 19.4296875 C-112.79246094 18.85863281 -112.19820313 18.28757812 -111.5859375 17.69921875 C-87.40590427 -3.81800442 -28.86030306 -20.6053605 0 0 Z " fill="#0E0E0E" transform="translate(200.38671875,442.5703125)"/>
<path d="M0 0 C3.74820574 5.62230861 2.34210167 12.91609732 1.1171875 19.33203125 C0.71646954 21.16182764 0.30194811 22.98864556 -0.125 24.8125 C-0.34438232 25.78646729 -0.56376465 26.76043457 -0.78979492 27.76391602 C-3.20110217 38.26123574 -6.04900771 48.64325491 -9 59 C-7.35 59.33 -5.7 59.66 -4 60 C-3.4375 61.9375 -3.4375 61.9375 -3 64 C-4 65 -4 65 -7.5625 65.0625 C-8.696875 65.041875 -9.83125 65.02125 -11 65 C-11.14099121 65.71542969 -11.28198242 66.43085938 -11.42724609 67.16796875 C-12.07442294 70.44572599 -12.72468752 73.7228635 -13.375 77 C-13.59671875 78.12535156 -13.8184375 79.25070312 -14.046875 80.41015625 C-15.9190896 89.82629437 -15.9190896 89.82629437 -17.125 94.28125 C-18.09339845 98.39694339 -18.43792384 102.29078636 -18.625 106.5 C-18.68300781 107.59054687 -18.68300781 107.59054687 -18.7421875 108.703125 C-18.83509655 110.46839688 -18.9185657 112.23416157 -19 114 C-20.65614657 114.38218767 -22.32457024 114.71395102 -24 115 C-25.68824911 113.31175089 -25.22760668 111.28360904 -25.2734375 108.96484375 C-25.2106648 101.65615319 -23.75860388 94.77708442 -22.11914062 87.69750977 C-21.62071315 85.54397802 -21.14094285 83.3869112 -20.6640625 81.22851562 C-18.11904112 69.88933652 -18.11904112 69.88933652 -16 65 C-16.74572266 65.06058594 -17.49144531 65.12117188 -18.25976562 65.18359375 C-21.67292073 65.45901905 -25.08644743 65.72954723 -28.5 66 C-29.67304688 66.09539062 -30.84609375 66.19078125 -32.0546875 66.2890625 C-38.05745776 66.7611905 -43.97872017 67.11923326 -50 67 C-50.21914063 67.63808594 -50.43828125 68.27617187 -50.6640625 68.93359375 C-52.52762453 73.21106799 -54.94687624 77.08448545 -57.375 81.0625 C-58.4563046 82.84079607 -59.53701554 84.61945322 -60.6171875 86.3984375 C-61.17374023 87.31463867 -61.73029297 88.23083984 -62.30371094 89.17480469 C-64.00547628 92.00912082 -65.66778831 94.86329741 -67.3203125 97.7265625 C-67.85350098 98.64171631 -68.38668945 99.55687012 -68.93603516 100.49975586 C-69.96366285 102.26578041 -70.98188671 104.03731693 -71.98974609 105.81469727 C-72.45719238 106.61190186 -72.92463867 107.40910645 -73.40625 108.23046875 C-73.81166016 108.93582764 -74.21707031 109.64118652 -74.63476562 110.36791992 C-76.30168272 112.36064896 -77.47155449 112.63625047 -80 113 C-80.96573265 109.94916276 -81.23027335 108.50212384 -79.875 105.546875 C-79.25625 104.62390625 -78.6375 103.7009375 -78 102.75 C-77.2667026 101.62684172 -76.53653455 100.50163738 -75.80859375 99.375 C-75.3791748 98.715 -74.94975586 98.055 -74.50732422 97.375 C-71.24605136 92.23640875 -68.17567924 86.97915094 -65.0625 81.75 C-63.74249723 79.53549678 -62.42099115 77.32188863 -61.09765625 75.109375 C-60.23926147 73.67029785 -60.23926147 73.67029785 -59.36352539 72.20214844 C-58 70 -58 70 -57 69 C-61.62 69.33 -66.24 69.66 -71 70 C-71.33 68.68 -71.66 67.36 -72 66 C-68.4664584 62.4664584 -63.27154756 62.10947217 -58.40625 61.875 C-56.27042687 61.875 -54.13474769 61.93223023 -52 62 C-51.75773682 61.31172119 -51.51547363 60.62344238 -51.26586914 59.91430664 C-49.77266375 56.4766224 -47.83022938 53.46795151 -45.74609375 50.37109375 C-45.32634781 49.74074722 -44.90660187 49.1104007 -44.47413635 48.46095276 C-43.58451337 47.12734623 -42.69261196 45.79525713 -41.79858398 44.46459961 C-40.4605946 42.47189542 -39.13111198 40.47372987 -37.80273438 38.47460938 C-30.88806619 28.11069805 -23.65752893 18.02501434 -15.6875 8.4375 C-14.48673828 6.98150391 -14.48673828 6.98150391 -13.26171875 5.49609375 C-8.98082488 0.77158394 -6.54469082 -0.72718787 0 0 Z " fill="#0C0C0C" transform="translate(496,434)"/>
<path d="M0 0 C2.171875 1.0703125 2.171875 1.0703125 4 3 C4.45781902 5.68528464 4.69472304 7.99651714 4.75 10.6875 C4.77964844 11.38939453 4.80929688 12.09128906 4.83984375 12.81445312 C4.91037033 14.54235424 4.95747068 16.2711832 5 18 C15.9567996 16.80933435 22.47900633 11.00297884 29.87109375 3.171875 C32.93204864 0.04913937 34.45641608 -0.9473951 38.875 -1.375 C43.00073186 -1.29887949 45.05936192 0.05936192 48 3 C47 8 46 13 45 18 C50.65608541 17.63897327 54.28015056 15.95281497 59.08203125 12.9609375 C59.71496094 12.64382813 60.34789062 12.32671875 61 12 C61.99 12.495 61.99 12.495 63 13 C62.34 14.32 61.68 15.64 61 17 C60.34 17 59.68 17 59 17 C59.495 18.485 59.495 18.485 60 20 C51.738041 24.40774487 51.738041 24.40774487 47 25 C47.32355469 25.83273437 47.64710938 26.66546875 47.98046875 27.5234375 C52.24057803 42.05024693 47.42954011 57.89959656 41 71 C34.72603882 82.16624102 34.72603882 82.16624102 30 85 C26.875 84.9375 26.875 84.9375 24 84 C20.53992295 78.80661266 21.50207149 72.06887638 22.45751953 66.18017578 C23.08698216 63.28424385 23.80154178 60.42664244 24.5625 57.5625 C24.82627441 56.53495605 25.09004883 55.50741211 25.36181641 54.44873047 C27.67106754 45.70319919 30.5475236 37.20718579 33.6796875 28.7265625 C35.11131896 25.34472752 35.11131896 25.34472752 35 23 C34.1646875 23.495 34.1646875 23.495 33.3125 24 C30.61141671 25.16803602 28.91462786 25.37367024 26 25 C24.1875 23.75 24.1875 23.75 23 22 C23 20.68 23 19.36 23 18 C22.32195312 18.433125 21.64390625 18.86625 20.9453125 19.3125 C15.21060412 22.74379366 10.80888026 24.66696961 4.09375 24.6015625 C2 24 2 24 0.21875 22.2109375 C-1 20 -1 20 -1 16 C-1.74765625 16.55429687 -2.4953125 17.10859375 -3.265625 17.6796875 C-4.25046875 18.40414062 -5.2353125 19.12859375 -6.25 19.875 C-7.22453125 20.59429688 -8.1990625 21.31359375 -9.203125 22.0546875 C-13.21696258 24.84643487 -16.01147149 26.63955494 -21 26 C-22.8125 24.9375 -22.8125 24.9375 -24 23 C-24.85575056 18.24583024 -23.94078031 15.40660488 -21.4375 11.4375 C-15.88692788 3.74805493 -9.87721105 -2.29292399 0 0 Z " fill="#0D0D0D" transform="translate(216,498)"/>
<path d="M0 0 C1.81115956 1.81115956 1.38199448 4.61278227 1.5625 7.0625 C1.64628906 8.16722656 1.73007812 9.27195312 1.81640625 10.41015625 C1.87699219 11.26480469 1.93757812 12.11945313 2 13 C3.051875 12.13375 3.051875 12.13375 4.125 11.25 C12.84533105 4.42539309 12.84533105 4.42539309 17.5 4.3125 C21 5 21 5 22.8125 6.0625 C24.54681976 8.89217961 25.70123476 11.95072508 27 15 C30.35745917 16.67872958 34.13019954 16.16503357 37.8203125 16.15234375 C39.15922043 16.14943581 39.15922043 16.14943581 40.525177 16.14646912 C49.43738362 16.07638515 58.28486639 15.47608526 67.16622925 14.77456665 C71.87873916 14.40562949 76.59357671 14.06951392 81.30859375 13.734375 C82.23932205 13.66821487 83.17005035 13.60205475 84.12898254 13.53388977 C111.38721097 11.62674849 138.69168115 11.87837188 166 12 C166 13.65 166 15.3 166 17 C160.15480585 18.2503022 154.36170056 18.17159266 148.4140625 18.2109375 C146.036288 18.23694721 143.65852123 18.26367065 141.28076172 18.29101562 C139.40707916 18.31095581 139.40707916 18.31095581 137.49554443 18.33129883 C116.58549538 18.567388 95.74510549 19.13069536 74.875 20.5 C73.86334778 20.56580261 72.85169556 20.63160522 71.80938721 20.69940186 C68.95324691 20.88789951 66.09761686 21.0822896 63.2421875 21.28125 C62.41761047 21.33854279 61.59303345 21.39583557 60.74346924 21.4548645 C57.04416665 21.72582763 53.36978857 22.0575221 49.69042969 22.5300293 C45.55828191 23.05625214 41.53366208 23.25640294 37.375 23.3125 C36.65054688 23.34150391 35.92609375 23.37050781 35.1796875 23.40039062 C29.99216235 23.46147561 27.11934847 22.40997426 23 19 C21.25 16.4375 21.25 16.4375 20 14 C19.01 12.515 19.01 12.515 18 11 C12.17352335 12.50444845 8.60299371 15.64847311 4.32421875 19.63085938 C2.8046875 20.98046875 2.8046875 20.98046875 0 23 C-2.33921112 22.86123324 -3.35239961 22.64760039 -5 21 C-5.09938863 19.23146708 -5.12969223 17.45881725 -5.125 15.6875 C-5.12886719 14.23923828 -5.12886719 14.23923828 -5.1328125 12.76171875 C-5.01628167 10.33856295 -4.69241648 8.31355031 -4 6 C-12.03481349 10.47007229 -17.98504389 17.39667945 -23 25 C-24.32 24.67 -25.64 24.34 -27 24 C-27.125 17.25 -27.125 17.25 -26 15 C-26.86882813 15.55429687 -27.73765625 16.10859375 -28.6328125 16.6796875 C-29.79666681 17.41178941 -30.9607411 18.14354169 -32.125 18.875 C-32.97964844 19.42220703 -32.97964844 19.42220703 -33.8515625 19.98046875 C-38.753617 23.04425281 -42.86017804 25.03626817 -48.6875 24.9375 C-52 24 -52 24 -53.875 21.625 C-55 19 -55 19 -56 16 C-58.64 17.98 -61.28 19.96 -64 22 C-64.33 21.01 -64.66 20.02 -65 19 C-64.67 18.34 -64.34 17.68 -64 17 C-63.34 17 -62.68 17 -62 17 C-62 16.34 -62 15.68 -62 15 C-61.01 15 -60.02 15 -59 15 C-58.731875 14.401875 -58.46375 13.80375 -58.1875 13.1875 C-56.97699666 10.95762543 -56.008621 9.54509308 -54 8 C-52.68 8 -51.36 8 -50 8 C-49.67 11.3 -49.34 14.6 -49 18 C-39.26547171 17.37864713 -31.66003912 11.86327975 -25 5 C-23.04339949 2.27966727 -23.04339949 2.27966727 -22 0 C-19.525 0.495 -19.525 0.495 -17 1 C-17.50712033 4.71888239 -18.11608215 7.73454239 -20 11 C-19.1822077 10.1822077 -18.37980481 9.34905133 -17.58203125 8.51171875 C-7.21082018 -2.1800154 -7.21082018 -2.1800154 0 0 Z " fill="#0F0F0E" transform="translate(602,498)"/>
<path d="M0 0 C0.99 0 1.98 0 3 0 C2.79810565 11.03421438 0.53917813 21.05612298 -2.29296875 31.66381836 C-3.01006069 34.35018937 -3.70954032 37.04069959 -4.40625 39.73242188 C-4.85318007 41.44296641 -5.30106026 43.15326306 -5.75 44.86328125 C-5.96043945 45.66727859 -6.17087891 46.47127594 -6.38769531 47.29963684 C-7.88211379 52.88211379 -7.88211379 52.88211379 -9 54 C-11.96346221 54.24246509 -14.90623207 54.42606611 -17.875 54.5625 C-19.16434448 54.62618774 -19.16434448 54.62618774 -20.47973633 54.69116211 C-26.65566351 54.97999582 -32.8171477 55.12504645 -39 55 C-37.54657151 50.94074524 -35.57370312 47.60928133 -33.18359375 44.02734375 C-32.8082399 43.46358536 -32.43288605 42.89982697 -32.04615784 42.31898499 C-31.25069181 41.12661334 -30.45294983 39.93575728 -29.65307617 38.74633789 C-28.4599497 36.97090627 -27.2753206 35.19004597 -26.09179688 33.40820312 C-19.59553734 23.67176767 -12.96595699 13.91857854 -5 5.3125 C-4.2575 4.50425781 -3.515 3.69601562 -2.75 2.86328125 C-1.84404439 1.89868119 -0.93573737 0.93573737 0 0 Z " fill="#F6F6F6" transform="translate(490,440)"/>
<path d="M0 0 C2.171875 1.0703125 2.171875 1.0703125 4 3 C4.45781902 5.68528464 4.69472304 7.99651714 4.75 10.6875 C4.77964844 11.38939453 4.80929688 12.09128906 4.83984375 12.81445312 C4.91037033 14.54235424 4.95747068 16.2711832 5 18 C9.68068038 17.49663882 13.28523288 16.65583449 17.4375 14.4375 C18.30246094 13.98246094 19.16742188 13.52742188 20.05859375 13.05859375 C20.69925781 12.70925781 21.33992188 12.35992187 22 12 C22 12.66 22 13.32 22 14 C22.66 14.33 23.32 14.66 24 15 C22.47810321 19.56569036 19.19602959 20.5948724 15.06640625 22.75390625 C10.77692594 24.49701991 6.5224624 25.2993642 2 24 C-0.86837953 21.11903985 -1 20.22939086 -1 16 C-1.74765625 16.55429687 -2.4953125 17.10859375 -3.265625 17.6796875 C-4.25046875 18.40414062 -5.2353125 19.12859375 -6.25 19.875 C-7.22453125 20.59429688 -8.1990625 21.31359375 -9.203125 22.0546875 C-13.21696258 24.84643487 -16.01147149 26.63955494 -21 26 C-22.8125 24.9375 -22.8125 24.9375 -24 23 C-24.85575056 18.24583024 -23.94078031 15.40660488 -21.4375 11.4375 C-15.88692788 3.74805493 -9.87721105 -2.29292399 0 0 Z " fill="#0A0A0A" transform="translate(216,498)"/>
<path d="M0 0 C2.875 1.25 2.875 1.25 5 3 C5.6328125 5.109375 5.6328125 5.109375 6 7 C5.44570313 7.39832031 4.89140625 7.79664063 4.3203125 8.20703125 C3.59585938 8.73683594 2.87140625 9.26664062 2.125 9.8125 C1.40570312 10.33457031 0.68640625 10.85664063 -0.0546875 11.39453125 C-2.23028655 13.03272777 -2.23028655 13.03272777 -4 16 C-4.99 16 -5.98 16 -7 16 C-7 16.66 -7 17.32 -7 18 C-7.66 18 -8.32 18 -9 18 C-8.87625 18.7425 -8.7525 19.485 -8.625 20.25 C-9 23 -9 23 -11.625 25.375 C-15.42548577 27.20486352 -17.01674911 27.13807168 -21 26 C-21.33 24.68 -21.66 23.36 -22 22 C-24.64 23.98 -27.28 25.96 -30 28 C-31.65 26.68 -33.3 25.36 -35 24 C-34.51273438 23.65710938 -34.02546875 23.31421875 -33.5234375 22.9609375 C-27.42901159 18.4621431 -22.19520974 13.33825041 -16.96240234 7.88818359 C-11.71734707 2.48899276 -7.94041048 -0.85075827 0 0 Z " fill="#0E0E0E" transform="translate(547,497)"/>
<path d="M0 0 C2.125 0.9375 2.125 0.9375 4 2 C3.8046875 3.83984375 3.8046875 3.83984375 3 6 C0.8828125 7.37890625 0.8828125 7.37890625 -1.875 8.5625 C-2.86886719 8.99304688 -3.86273438 9.42359375 -4.88671875 9.8671875 C-7.82790204 10.93737966 -10.62437272 11.57915864 -13.6875 12.1875 C-19.50597155 13.62151423 -21.59040202 16.72778981 -24.94921875 21.484375 C-28.68485899 26.06676036 -33.79824799 28.399124 -39 31 C-40.54023996 31.06950541 -42.08334988 31.08452357 -43.625 31.0625 C-44.85089844 31.04896484 -44.85089844 31.04896484 -46.1015625 31.03515625 C-46.72804688 31.02355469 -47.35453125 31.01195312 -48 31 C-48.8125 28.875 -48.8125 28.875 -49 26 C-44.48105876 18.57602511 -36.12924345 14.39168719 -28.4375 10.8125 C-24.89351439 8.94385304 -24.44014073 8.46063668 -23 5 C-21.68 5 -20.36 5 -19 5 C-19 5.66 -19 6.32 -19 7 C-12.19911166 5.51616982 -6.21504714 3.10752357 0 0 Z " fill="#0C0C0D" transform="translate(400,502)"/>
<path d="M0 0 C2.0625 0.4375 2.0625 0.4375 4 1 C3.55201763 4.47186333 2.46561585 7.2938602 1 10.4375 C-0.62549573 13.9594074 -1.60078534 17.10765708 -2 21 C4.4718234 17.12571116 9.32526851 12.92232865 14 7 C16.475 7.495 16.475 7.495 19 8 C19.66 11.63 20.32 15.26 21 19 C26.77294736 19.46183579 29.39371468 18.42793326 34 15 C34.66 15 35.32 15 36 15 C35.9375 18.25 35.9375 18.25 35 22 C31.36209297 24.89547703 28.50753316 26.22846535 23.875 26.5625 C19.18098816 25.88111118 17.86124804 24.70279158 15 21 C14.3106098 19.67827258 13.63889561 18.34686102 13 17 C12.34644531 17.70576172 12.34644531 17.70576172 11.6796875 18.42578125 C8.10491319 22.1630453 4.99068871 25.26410827 0 27 C-3.43395207 26.7658669 -4.55011158 26.44988842 -7 24 C-7.125 21.375 -7.125 21.375 -7 19 C-7.763125 19.33 -8.52625 19.66 -9.3125 20 C-12 21 -12 21 -15 21 C-15 20.34 -15 19.68 -15 19 C-14.34 19 -13.68 19 -13 19 C-12.90332031 18.41992188 -12.80664062 17.83984375 -12.70703125 17.2421875 C-11.85288556 14.53346028 -10.62366443 13.18968927 -8.6875 11.125 C-5.7512203 7.89931285 -3.33232489 4.67789694 -1 1 C-0.67 0.67 -0.34 0.34 0 0 Z " fill="#0C0C0D" transform="translate(290,496)"/>
<path d="M0 0 C-0.61471558 2.88395691 -0.61471558 2.88395691 -2 6 C-10.8393324 10.00692777 -21.87145682 9.4060227 -31.3671875 9.29296875 C-32.78206933 9.28735364 -34.19695711 9.28309264 -35.61184692 9.28010559 C-39.28449427 9.26880706 -42.95676934 9.2394751 -46.62927246 9.20599365 C-50.39732837 9.17496357 -54.16544612 9.16153088 -57.93359375 9.14648438 C-65.28922979 9.114586 -72.64456218 9.0635788 -80 9 C-80 7.35 -80 5.7 -80 4 C-79.23737854 3.99413376 -78.47475708 3.98826752 -77.68902588 3.98222351 C-70.4522091 3.92397931 -63.21572426 3.85172565 -55.97920609 3.76428509 C-52.26008581 3.71982543 -48.54106895 3.68051808 -44.82177734 3.65356445 C-41.22296395 3.62728468 -37.62455391 3.58671525 -34.02599335 3.53681374 C-32.00572419 3.51235554 -29.98529818 3.50216466 -27.96490479 3.49235535 C-20.81499616 3.38006852 -14.45400377 2.68010954 -7.58758545 0.63825989 C-4.95637607 -0.01076038 -2.69823516 -0.11440843 0 0 Z " fill="#040404" transform="translate(80,499)"/>
<path d="M0 0 C0.66 0 1.32 0 2 0 C6.28304066 14.72295226 2.96842733 29.49137271 -4 43 C-5.79184267 45.85106002 -7.60886273 48.61587487 -10 51 C-10.66 51 -11.32 51 -12 51 C-13.26920689 34.67658922 -7.27685294 14.55370588 0 0 Z " fill="#F0F0EF" transform="translate(256,525)"/>
<path d="M0 0 C-0.46444515 19.08447356 -13.19887309 34.89927225 -26 48 C-27.11144187 44.70737084 -26.91426984 42.96528985 -25.62890625 39.76171875 C-25.30599609 38.94872314 -24.98308594 38.13572754 -24.65039062 37.2980957 C-24.29138672 36.43659912 -23.93238281 35.57510254 -23.5625 34.6875 C-23.19705078 33.79828857 -22.83160156 32.90907715 -22.45507812 31.99291992 C-9.05935333 0 -9.05935333 0 0 0 Z " fill="#F1F1F1" transform="translate(534,443)"/>
<path d="M0 0 C0.66 0 1.32 0 2 0 C1.6297812 6.36480908 0.38184366 11.41905605 -2.4375 17.125 C-2.962229 18.21252563 -2.962229 18.21252563 -3.49755859 19.32202148 C-8.78713322 29.9625159 -15.73350926 39.63005141 -23 49 C-24 47 -24 47 -22.84765625 43.2109375 C-22.26396106 41.59481135 -21.66803345 39.98307122 -21.0625 38.375 C-20.744021 37.52486328 -20.42554199 36.67472656 -20.09741211 35.79882812 C-15.30860363 23.30202993 -9.63239216 9.63239216 0 0 Z " fill="#EEEEEE" transform="translate(390,441)"/>
<path d="M0 0 C-2.87693376 6.67859624 -9.39598848 11.32694772 -16 14 C-16.66 14 -17.32 14 -18 14 C-16.5403938 8.01561457 -13.30292221 3.03356387 -8.0078125 -0.2265625 C-5.13382523 -1.33366265 -2.94418196 -0.66913226 0 0 Z " fill="#E7E7E8" transform="translate(215,504)"/>
<path d="M0 0 C0.66 0.66 1.32 1.32 2 2 C1.82958984 3.99560547 1.82958984 3.99560547 1 6 C-1.45408231 7.55210456 -3.78187628 8.85735774 -6.375 10.125 C-11.80709657 12.84919293 -11.80709657 12.84919293 -17 16 C-17.66 15.34 -18.32 14.68 -19 14 C-18.01 13.67 -17.02 13.34 -16 13 C-14.7605942 11.30406839 -14.7605942 11.30406839 -13.6875 9.25 C-10.58170823 4.06435368 -6.76369514 -1.31516294 0 0 Z " fill="#F0F0EF" transform="translate(374,506)"/>
<path d="M0 0 C0 4 0 4 -1.828125 6.0703125 C-2.62734375 6.74835938 -3.4265625 7.42640625 -4.25 8.125 C-5.03890625 8.80820312 -5.8278125 9.49140625 -6.640625 10.1953125 C-9.8889422 12.67995248 -11.87186913 14 -16 14 C-14.69977902 8.07677108 -11.47028205 4.82715185 -7 1 C-4.53721199 -0.231394 -2.7204945 -0.07159196 0 0 Z " fill="#F0F0F0" transform="translate(546,503)"/>
<path d="M0 0 C2.125 0.9375 2.125 0.9375 4 2 C4 5 4 5 2.64453125 6.71875 C-5.87280702 15 -5.87280702 15 -10 15 C-9.84238796 8.69551854 -6.32392365 5.18412011 -2 1 C-1.34 0.67 -0.68 0.34 0 0 Z " fill="#EEEFEE" transform="translate(254,502)"/>
<path d="M0 0 C0.33 0.99 0.66 1.98 1 3 C-1.25 6.1875 -1.25 6.1875 -4 9 C-4.99 9 -5.98 9 -7 9 C-7 9.66 -7 10.32 -7 11 C-7.66 11 -8.32 11 -9 11 C-8.87625 11.7425 -8.7525 12.485 -8.625 13.25 C-9 16 -9 16 -11.625 18.375 C-15 20 -15 20 -18.25 20.0625 C-21 19 -21 19 -22.375 16.4375 C-22.58125 15.633125 -22.7875 14.82875 -23 14 C-21.68 14 -20.36 14 -19 14 C-11.52325191 11.60744061 -4.36534407 6.5480161 0 0 Z " fill="#171717" transform="translate(547,504)"/>
<path d="M0 0 C1.32 0.33 2.64 0.66 4 1 C3.43853399 5.35136159 1.73664135 8.90127474 -0.078125 12.83984375 C-1.08551207 15.20037363 -1.67154254 17.4544547 -2 20 C-2.66 19.01 -3.32 18.02 -4 17 C-4.556875 16.38125 -5.11375 15.7625 -5.6875 15.125 C-7 13 -7 13 -7.0625 10.75 C-5.46709544 6.6207176 -2.77262473 3.4170268 0 0 Z " fill="#121212" transform="translate(290,496)"/>
<path d="M0 0 C0.99 0.33 1.98 0.66 3 1 C2.85936865 3.29199177 2.71234057 5.58359186 2.5625 7.875 C2.48128906 9.15117188 2.40007812 10.42734375 2.31640625 11.7421875 C2 15 2 15 1 17 C-0.65 16.67 -2.3 16.34 -4 16 C-4.22541675 10.58999807 -3.61037909 6.18899929 -2 1 C-1.34 0.67 -0.68 0.34 0 0 Z " fill="#141413" transform="translate(114,533)"/>
<path d="M0 0 C3 3.75 3 3.75 3 6 C0.98828125 7.5078125 0.98828125 7.5078125 -1.6875 9.125 C-2.55761719 9.66382813 -3.42773438 10.20265625 -4.32421875 10.7578125 C-7.15423253 12.07159992 -8.9233227 12.25500388 -12 12 C-11.2884375 10.824375 -11.2884375 10.824375 -10.5625 9.625 C-9.66101977 8.11051322 -8.78820515 6.5764103 -8 5 C-6.40625 3.96484375 -6.40625 3.96484375 -4.5 2.9375 C-2.0882696 1.6858579 -2.0882696 1.6858579 0 0 Z " fill="#121212" transform="translate(207,512)"/>
<path d="M0 0 C2.625 0.375 2.625 0.375 5 1 C5.625 3.375 5.625 3.375 6 6 C5.34 6.66 4.68 7.32 4 8 C1.375 7.625 1.375 7.625 -1 7 C-1.625 4.625 -1.625 4.625 -2 2 C-1.34 1.34 -0.68 0.68 0 0 Z " fill="#141414" transform="translate(342,482)"/>
<path d="M0 0 C0.66 0.33 1.32 0.66 2 1 C1.34 2.32 0.68 3.64 0 5 C-0.66 5 -1.32 5 -2 5 C-1.67 5.99 -1.34 6.98 -1 8 C-4 10 -4 10 -7 10 C-7 8.02 -7 6.04 -7 4 C-1.7265625 0.77734375 -1.7265625 0.77734375 0 0 Z " fill="#141415" transform="translate(277,510)"/>
<path d="M0 0 C0.66 0.33 1.32 0.66 2 1 C1.01 1.66 0.02 2.32 -1 3 C-0.67 2.01 -0.34 1.02 0 0 Z M-2 3 C-2 5 -2 7 -2 9 C-4.31 10.32 -6.62 11.64 -9 13 C-7.6062718 8.56541027 -5.39417765 6.12621626 -2 3 Z " fill="#DEDEDE" transform="translate(371,492)"/>
<path d="M0 0 C0.99 0.99 1.98 1.98 3 3 C-1.75 7.875 -1.75 7.875 -4 9 C-4.66 8.34 -5.32 7.68 -6 7 C-5.01 6.67 -4.02 6.34 -3 6 C-1.29144978 2.99992729 -1.29144978 2.99992729 0 0 Z " fill="#E4E4E4" transform="translate(361,513)"/>
<path d="M0 0 C0.66 0.33 1.32 0.66 2 1 C0.58833114 1.98635837 -0.82956184 2.96381255 -2.25 3.9375 C-3.43335938 4.75541016 -3.43335938 4.75541016 -4.640625 5.58984375 C-6.82636993 6.89622441 -8.5153801 7.54980511 -11 8 C-7.71644638 4.32241995 -4.37221763 2.18610882 0 0 Z " fill="#C2C2C3" transform="translate(369,520)"/>
<path d="M0 0 C-3.33333333 1.66666667 -6.66666667 3.33333333 -10 5 C-10 4.34 -10 3.68 -10 3 C-10.99 2.67 -11.98 2.34 -13 2 C-11.21089097 1.47044766 -9.41860852 0.9516063 -7.625 0.4375 C-6.62726563 0.14746094 -5.62953125 -0.14257812 -4.6015625 -0.44140625 C-2 -1 -2 -1 0 0 Z " fill="#E0E0DE" transform="translate(394,513)"/>
<path d="M0 0 C0.66 0.33 1.32 0.66 2 1 C0.35 2.98 -1.3 4.96 -3 7 C-4.32 6.67 -5.64 6.34 -7 6 C-4.69 4.02 -2.38 2.04 0 0 Z " fill="#DCDCDC" transform="translate(610,513)"/>
<path d="M0 0 C0 1.65 0 3.3 0 5 C-3 5 -3 5 -6 3 C-2.25 0 -2.25 0 0 0 Z " fill="#CCCCCC" transform="translate(331,514)"/>
<path d="M0 0 C1.65 1.32 3.3 2.64 5 4 C3.35 4.66 1.7 5.32 0 6 C0 4.02 0 2.04 0 0 Z " fill="#E3E4E1" transform="translate(288,511)"/>
</svg>
