<?xml version="1.0" encoding="UTF-8"?>
<svg version="1.1" xmlns="http://www.w3.org/2000/svg" width="952" height="289">
<path d="M0 0 C4.73169097 4.20594753 6.63576115 10.3632152 7.25390625 16.53515625 C7.31679948 19.38212316 7.19974196 22.15922551 7 25 C6.93039063 26.0725 6.86078125 27.145 6.7890625 28.25 C5.85861839 37.34767575 2.9147979 44.65990768 -0.96630859 52.80273438 C-2.86345906 56.83541133 -4.63919591 60.92255323 -6.4375 65 C-7.12299708 66.54197842 -7.80913174 68.08367366 -8.49609375 69.625 C-9.24052734 71.295625 -9.24052734 71.295625 -10 73 C-8.72769531 72.79503906 -7.45539063 72.59007813 -6.14453125 72.37890625 C7.81782835 70.21034714 21.90826175 68.5794093 36.06640625 69.12109375 C37.22011719 69.16363281 38.37382812 69.20617187 39.5625 69.25 C41.01849609 69.35054687 41.01849609 69.35054687 42.50390625 69.453125 C46.05560443 68.80837228 46.93320361 66.83967403 49 64 C52.65854182 62.70874995 54.86358409 62.5059848 58.453125 64.06640625 C60.69400215 65.30311675 62.85969289 66.59739511 65 68 C65 68.66 65 69.32 65 70 C67.97 70 70.94 70 74 70 C74.25652344 69.37996094 74.51304687 68.75992188 74.77734375 68.12109375 C78.17440614 60.26324236 82.369517 53.07133052 86.87451172 45.81591797 C87.94868999 44.08278608 89.00793807 42.3404271 90.06640625 40.59765625 C90.68386719 39.59605469 91.30132812 38.59445313 91.9375 37.5625 C92.48277344 36.67691406 93.02804688 35.79132812 93.58984375 34.87890625 C94.05519531 34.25886719 94.52054688 33.63882813 95 33 C95.66 33 96.32 33 97 33 C97.26167969 32.40960938 97.52335938 31.81921875 97.79296875 31.2109375 C102.20822147 23.12345194 111.70657652 18.95670616 120 16 C140.19164702 10.44221012 164.22591741 10.65211937 183 20 C184.21205436 20.55899554 185.42428349 21.11761235 186.63671875 21.67578125 C195.83688684 26.23775809 207.49180716 33.13899413 213 42 C213.72614679 44.91893081 214.00910151 47.81883444 214.25 50.8125 C214.32734375 51.60076172 214.4046875 52.38902344 214.484375 53.20117188 C214.67167287 55.13268114 214.83796228 57.06620779 215 59 C218.22977531 58.06458993 221.45871698 57.12632916 224.6875 56.1875 C225.73969727 55.88199219 226.79189453 55.57648437 227.87597656 55.26171875 C234.54388668 53.31920383 241.19995716 51.34241875 247.84765625 49.33203125 C287.98427034 37.20864816 331.60133076 24.09918554 374 25 C373.67 25.99 373.34 26.98 373 28 C371.70191406 28.17015625 370.40382813 28.3403125 369.06640625 28.515625 C324.74395975 34.3932748 282.4471125 43.7454262 239.77197266 57.13989258 C237.06622549 57.97945108 234.35332325 58.79011527 231.63671875 59.59375 C228.03773333 60.66723243 224.51298796 61.85481125 221 63.1875 C216.22097378 65 216.22097378 65 214 65 C214 70.61 214 76.22 214 82 C215.24265625 82.09410156 216.4853125 82.18820313 217.765625 82.28515625 C223.65897869 82.94775662 229.11376575 84.64607516 234.75 86.4375 C235.87180664 86.78804443 236.99361328 87.13858887 238.14941406 87.49975586 C247.96719087 90.60049864 257.69573566 93.94979721 267.41601562 97.34179688 C276.67149178 100.56696279 285.97418393 103.6016903 295.328125 106.52734375 C301.41771295 108.43865138 307.46816242 110.36785473 313.390625 112.75390625 C332.6720243 120.1369483 353.56605616 120.09755098 374 120 C373.96447021 119.1248877 373.92894043 118.24977539 373.89233398 117.34814453 C371.99026538 69.02480549 371.99026538 69.02480549 379 61 C382.76182068 57.23817932 385.8506517 56.71004758 391 56.5 C396.28471225 56.67725122 399.15652052 57.36427617 403 61 C403.33 61.99 403.66 62.98 404 64 C404.66 64 405.32 64 406 64 C406 64.66 406 65.32 406 66 C406.99 66.33 407.98 66.66 409 67 C410.31640625 68.9609375 410.31640625 68.9609375 411.5625 71.375 C412.95394269 74.03651344 414.3291777 76.49376655 416 79 C416.09796875 78.39414063 416.1959375 77.78828125 416.296875 77.1640625 C417.62728002 69.70920681 419.45654751 62.52801475 423.9375 56.3125 C426 55 426 55 428.625 55.125 C431 56 431 56 433 58 C433.34277743 62.49063693 433.04530383 67.00274853 432.875 71.5 C432.82786865 72.81758301 432.7807373 74.13516602 432.73217773 75.49267578 C432.29714617 85.04697595 430.8837681 93.77733526 428.47119141 102.99023438 C427.16374104 108.56688276 426.66787695 114.32304594 426 120 C433.92 120 441.84 120 450 120 C449.34 117.03 448.68 114.06 448 111 C447.70806885 107.97291565 447.70806885 107.97291565 447.64941406 105.27172852 C447.62308899 104.24358536 447.59676392 103.2154422 447.56964111 102.15614319 C447.5518158 101.074655 447.53399048 99.99316681 447.515625 98.87890625 C447.47946075 97.16899757 447.47946075 97.16899757 447.44256592 95.42454529 C447.39449224 93.02522326 447.35105398 90.62580434 447.31201172 88.22631836 C447.25024285 84.57684799 447.16706875 80.92829056 447.08203125 77.27929688 C447.03776769 74.93752412 446.99475737 72.59572726 446.953125 70.25390625 C446.92720276 69.17444229 446.90128052 68.09497833 446.87457275 66.98280334 C446.66021918 50.86623151 446.66021918 50.86623151 451.5 44.9375 C455.60112852 41.75912539 457.73028471 41.87148009 462.73828125 42.484375 C465.91844601 43.20938665 467.7545194 44.68434813 470 47 C471.19903512 49.39807024 471.10484824 50.82799628 471.06933594 53.50292969 C471.05892273 54.43860779 471.04850952 55.37428589 471.03778076 56.33831787 C471.02015686 57.35589172 471.00253296 58.37346558 470.984375 59.421875 C470.96787903 60.47344788 470.95138306 61.52502075 470.93438721 62.60845947 C470.89681069 64.84465492 470.85625509 67.08080195 470.81298828 69.31689453 C470.75102231 72.69428019 470.70906957 76.07152395 470.66796875 79.44921875 C470.48591092 90.67972882 470.0337955 101.13219055 467 112 C466.34 114.64 465.68 117.28 465 120 C471.27 119.67 477.54 119.34 484 119 C485.423125 116.1228125 485.423125 116.1228125 486.875 113.1875 C488.46328268 109.97640675 490.01158588 106.98262118 492 104 C492.34881245 102.49124775 492.63436701 100.96723829 492.875 99.4375 C494.09113483 93.00801198 495.50047642 86.36796971 500.375 81.75 C503 81 503 81 506 81.3125 C510.89201282 84.06425721 512.79936938 87.96712738 514.82421875 93.08203125 C517.22065053 101.79771624 515.17418678 111.20263134 514 120 C517.3 120 520.6 120 524 120 C524.47912624 116.68483361 524.95075975 113.36963831 525.39306641 110.04931641 C525.85008491 106.63464087 526.33057915 103.22374363 526.8125 99.8125 C526.96525391 98.63751953 527.11800781 97.46253906 527.27539062 96.25195312 C527.43845703 95.12337891 527.60152344 93.99480469 527.76953125 92.83203125 C527.90979736 91.80827393 528.05006348 90.7845166 528.19458008 89.72973633 C529.14079383 86.52282029 530.48199292 85.14144083 533 83 C535.375 83.6875 535.375 83.6875 538 85 C540.23695138 89.21825118 540.61566978 93.64085646 541.125 98.3125 C541.21136719 99.05306641 541.29773438 99.79363281 541.38671875 100.55664062 C541.59734705 102.37038435 541.79952986 104.18510543 542 106 C542.34611328 104.58460937 542.34611328 104.58460937 542.69921875 103.140625 C544.54505403 95.801507 546.70425648 88.94166839 549.76953125 82 C551.5587533 77.63770625 552.82778883 73.151592 554.10546875 68.6171875 C555 66 555 66 557 64 C559.8125 63.5 559.8125 63.5 563 64 C569.30956482 69.38621387 572.51134551 78.97949417 574 87 C574.15248988 89.45678135 574.27353093 91.91558304 574.375 94.375 C574.76246331 102.15662975 576.11892826 109.42839049 578 117 C578.33 117 578.66 117 579 117 C579.18062988 116.45698242 579.36125977 115.91396484 579.54736328 115.35449219 C589.69830423 85.04915617 589.69830423 85.04915617 597.9453125 80.89453125 C598.62335937 80.59933594 599.30140625 80.30414063 600 80 C600.61617187 79.67386719 601.23234375 79.34773438 601.8671875 79.01171875 C607.70464566 76.2625424 613.7885103 76.64632362 620 78 C628.15710521 82.10254409 633.00789738 90.22738432 638.0078125 97.58203125 C642.47707544 103.00648961 649.25851237 104.79376673 655.625 107.3046875 C659.176239 109.08852746 661.36490977 111.0554863 664 114 C662.75023244 117.65316671 662.32901247 118.78065836 659 121 C656.83374023 121.48657227 656.83374023 121.48657227 654.30859375 121.81640625 C652.90504639 122.0023938 652.90504639 122.0023938 651.47314453 122.19213867 C650.47138184 122.31435791 649.46961914 122.43657715 648.4375 122.5625 C647.4047998 122.69180908 646.37209961 122.82111816 645.30810547 122.9543457 C625.18994386 125.38100773 605.18872733 125.52162682 585 124 C584.97873047 124.89912109 584.97873047 124.89912109 584.95703125 125.81640625 C584.55768674 133.40395191 583.1612043 140.64476592 581.5625 148.0625 C581.34505127 149.08609619 581.12760254 150.10969238 580.90356445 151.16430664 C580.58198364 152.6163147 580.58198364 152.6163147 580.25390625 154.09765625 C580.06127197 154.96914307 579.8686377 155.84062988 579.67016602 156.73852539 C579 159 579 159 577 162 C573.875 162.1875 573.875 162.1875 571 162 C569.2453473 158.23304831 568.79209757 155.46194211 568.98828125 151.32421875 C569.03533203 150.24849609 569.08238281 149.17277344 569.13085938 148.06445312 C569.22077148 146.39286133 569.22077148 146.39286133 569.3125 144.6875 C569.36083984 143.58470703 569.40917969 142.48191406 569.45898438 141.34570312 C569.73540035 135.48498462 570.26931119 129.84551052 571 124 C562.75 124 554.5 124 546 124 C545.731875 125.8975 545.46375 127.795 545.1875 129.75 C544.46269846 134.38771614 543.65834507 138.98303089 542.625 143.5625 C542.41101563 144.51253906 542.19703125 145.46257812 541.9765625 146.44140625 C540.83002053 149.4453462 539.4818468 150.98111308 537 153 C533.98188578 152.82246387 533.16264785 152.16264785 531 150 C530.86474609 147.38623047 530.86474609 147.38623047 531.0234375 144.1171875 C531.075 142.95058594 531.1265625 141.78398437 531.1796875 140.58203125 C531.24414062 139.35871094 531.30859375 138.13539063 531.375 136.875 C531.43171875 135.64394531 531.4884375 134.41289062 531.546875 133.14453125 C531.68867683 130.09579194 531.84011973 127.04783612 532 124 C531.34 124 530.68 124 530 124 C529.97607178 124.87624023 529.95214355 125.75248047 529.92749023 126.65527344 C529.82117916 129.96728909 529.68512491 133.27549094 529.5300293 136.58544922 C529.46928067 138.00655041 529.41976091 139.42818496 529.38256836 140.85009766 C529.0698038 152.36145808 526.43282181 161.53543426 518.25 170.125 C513.56435644 174.02970297 513.56435644 174.02970297 509.4375 173.8125 C506 173 506 173 504 170 C503.5859375 167.73828125 503.5859375 167.73828125 503.375 165.3125 C503.30023437 164.50425781 503.22546875 163.69601563 503.1484375 162.86328125 C503.09945312 162.24839844 503.05046875 161.63351563 503 161 C502.46375 161.886875 501.9275 162.77375 501.375 163.6875 C498.49188942 168.01729597 495.01094591 171.3296847 490 173 C484.53749632 173.42019259 480.78610861 172.70911808 476 170 C474.33829306 168.07926227 473.24429149 166.23972469 472 164 C471.278125 164.20625 470.55625 164.4125 469.8125 164.625 C466.41367823 165.07817624 464.97549321 164.67848335 462 163 C459.6875 160.375 459.6875 160.375 458 158 C457.76216797 159.12535156 457.76216797 159.12535156 457.51953125 160.2734375 C455.23250992 170.30600619 451.85305199 179.93024475 444 187 C440.50851222 189.161062 438.03264358 189.13356044 433.953125 188.46875 C428.51533975 187.16368154 425.01587891 183.55296788 422 179 C420.90901837 176.34817753 420.30696691 173.68278309 419.75 170.875 C419.58725586 170.10816895 419.42451172 169.34133789 419.25683594 168.55126953 C417.47254231 159.44844093 417.1931364 150.2512334 417 141 C416.48953125 141.89138672 416.48953125 141.89138672 415.96875 142.80078125 C401.22787058 168.00925324 401.22787058 168.00925324 388.25390625 171.77734375 C384.27572664 172.1703355 381.53952931 170.73758712 378 169 C378 168.34 378 167.68 378 167 C377.34 167 376.68 167 376 167 C374.74259158 164.48518317 374.90186106 162.79490127 374.9375 159.984375 C374.94523437 158.98019531 374.95296875 157.97601563 374.9609375 156.94140625 C374.98678795 154.82942473 375.01282676 152.71744551 375.0390625 150.60546875 C375.07727738 145.61842722 375.08140278 140.90010634 374 136 C373.1793103 135.88023804 373.1793103 135.88023804 372.34204102 135.75805664 C366.26760748 134.71960217 360.7390087 132.8870737 354.98278809 130.70639038 C338.7246887 124.56111095 324.56590688 121.25453549 307 122 C305.94312988 122.03270996 304.88625977 122.06541992 303.79736328 122.09912109 C297.5229606 122.29350715 291.26425788 122.59565366 285 123 C285.804375 123.61875 286.60875 124.2375 287.4375 124.875 C290.59343619 127.49211782 290.91449627 128.127862 291.3125 132.1875 C290.95131909 136.59390714 289.91267573 139.70493388 287 143 C284.47923363 144.87180311 282.05889586 146.25976897 279 147 C278.12996338 146.85103271 277.25992676 146.70206543 276.36352539 146.54858398 C272.55918175 145.92810346 268.83153421 145.80934076 264.98828125 145.75390625 C263.41877541 145.72235865 261.84927691 145.69044414 260.27978516 145.65820312 C259.46761536 145.64281494 258.65544556 145.62742676 257.81866455 145.61157227 C245.45424976 145.36946931 233.20667003 145.02630764 220.92578125 143.4765625 C214.63492715 142.71289663 208.32549302 142.35929557 202 142 C196.20877436 154.17591213 196.20877436 154.17591213 192.875 167.125 C191.99704712 173.75612646 188.61508462 178.53434878 183.8125 183.0625 C177.72196097 185.09267968 172.56748847 185.19474199 166.67578125 182.453125 C156.49705856 176.35298457 144.25093873 167.72097949 139.5 156.4375 C139.335 155.633125 139.17 154.82875 139 154 C138.34 154.495 137.68 154.99 137 155.5 C133.21813567 157.39093216 130.09497339 157.93341305 126 157 C121.1936137 154.42515019 117.16463906 151.09326838 115 146 C114.67 144.02 114.34 142.04 114 140 C109.38 139.67 104.76 139.34 100 139 C99.9175 140.32 99.835 141.64 99.75 143 C99.25600964 147.91873256 98.2819218 152.64050718 97.125 157.4375 C96.96354492 158.13552734 96.80208984 158.83355469 96.63574219 159.55273438 C95.00203904 166.06851354 95.00203904 166.06851354 92 168 C88.8125 167.6875 88.8125 167.6875 86 167 C84.64638225 160.17175048 85.10895122 153.48468295 85.4375 146.5625 C85.48970703 145.35400391 85.54191406 144.14550781 85.59570312 142.90039062 C85.72470754 139.93328916 85.8596435 136.96658252 86 134 C85.34 134 84.68 134 84 134 C82.70302922 135.65214933 82.70302922 135.65214933 81.5 137.75 C81.0771875 138.44609375 80.654375 139.1421875 80.21875 139.859375 C79.8165625 140.56578125 79.414375 141.2721875 79 142 C78.5565625 142.58265625 78.113125 143.1653125 77.65625 143.765625 C76.67492762 146.26018918 76.67492762 146.26018918 78.42749023 149.61254883 C80.13500076 153.96828256 80.48107401 157.78843094 80.50390625 162.43359375 C80.51624802 163.22065201 80.52858978 164.00771027 80.54130554 164.81861877 C80.569967 167.35866029 80.57003372 169.89732124 80.5625 172.4375 C80.56334595 173.30560303 80.56419189 174.17370605 80.56506348 175.06811523 C80.5356854 189.23357005 78.96735117 201.94614777 74.75195312 215.5390625 C74.07164702 217.76551886 73.47413839 219.9889687 72.921875 222.25 C69.73141464 235.22814385 64.96387144 247.66508987 60.07421875 260.08203125 C59.0928831 262.74769573 58.33656192 265.37793974 57.625 268.125 C55.66243637 275.01653091 51.48610537 282.28910517 46 287 C43.5 287.8125 43.5 287.8125 41 288 C38 286 38 286 37.6015625 284.1796875 C37.6774352 276.71887211 39.08282145 269.60281233 40.54248047 262.31396484 C43.41672875 247.77707837 45.64318288 233.12856686 47.78109741 218.46844482 C48.04775855 216.64372733 48.31690163 214.81937045 48.58877563 212.99542236 C50.06862903 203.03218725 51.31044953 193.16376033 51.65055847 183.08866882 C51.88352437 176.87118078 53.01274524 171.00088596 54.37890625 164.94140625 C55.10329991 162.01183137 55.10329991 162.01183137 55 159 C54.195625 159.61875 53.39125 160.2375 52.5625 160.875 C46.81148316 164.69996875 39.78235174 165.53194916 33 165 C31.65909241 164.34870203 30.32407669 163.68486725 29 163 C26.25901665 163.26525645 24.83076352 164.11000371 22.5 165.625 C20 167 20 167 17.84375 166.5859375 C17.2353125 166.39257812 16.626875 166.19921875 16 166 C15.98582031 166.58265625 15.97164062 167.1653125 15.95703125 167.765625 C15.39085049 177.49781321 12.16337514 187.1698051 5 194 C1.31320722 196.69873232 -2.38166892 199.37990344 -7 200 C-10.26063115 198.3044718 -12.45805443 197.05023204 -14.16748047 193.73754883 C-15.11345479 190.62693003 -15.22732082 188.0730634 -15.1953125 184.82421875 C-15.18886719 183.66728516 -15.18242188 182.51035156 -15.17578125 181.31835938 C-15.15064453 179.52108398 -15.15064453 179.52108398 -15.125 177.6875 C-15.11597656 176.46998047 -15.10695313 175.25246094 -15.09765625 173.99804688 C-15.07413037 170.99849726 -15.04125653 167.99934956 -15 165 C-15.30292969 165.66314209 -15.60585937 166.32628418 -15.91796875 167.00952148 C-18.37473842 172.18432884 -20.59132881 176.26690965 -25 180.0625 C-25.825 180.79597656 -26.65 181.52945313 -27.5 182.28515625 C-30.26291875 184.18034583 -31.64535155 184.99500796 -35 185 C-37.52295269 183.8678974 -39.66410169 182.51146361 -42 181 C-42.13051758 181.80219971 -42.26103516 182.60439941 -42.39550781 183.4309082 C-42.99622425 187.06124487 -43.6227673 190.68665486 -44.25 194.3125 C-44.45496094 195.57513672 -44.65992187 196.83777344 -44.87109375 198.13867188 C-45.19013672 199.95141602 -45.19013672 199.95141602 -45.515625 201.80078125 C-45.79841309 203.47394409 -45.79841309 203.47394409 -46.08691406 205.1809082 C-47.13590252 208.41958994 -48.00753156 209.43780732 -51 211 C-53.625 210.5 -53.625 210.5 -56 209 C-62.32242681 198.8841171 -59.51751169 179.272944 -58 168 C-59.32 167.67 -60.64 167.34 -62 167 C-62.85551676 164.60671894 -63.14662573 163.39974804 -62.2578125 160.9765625 C-61.88398437 160.20054687 -61.51015625 159.42453125 -61.125 158.625 C-58.46361946 151.88040549 -58.44644658 145.21519174 -58.32861328 138.05712891 C-58.2090141 132.09092927 -57.47953492 126.78794062 -56 121 C-56.71800781 121.17015625 -57.43601562 121.3403125 -58.17578125 121.515625 C-59.72845703 121.87914063 -59.72845703 121.87914063 -61.3125 122.25 C-63.10300781 122.66958984 -63.10300781 122.66958984 -64.9296875 123.09765625 C-67.71703578 123.73263579 -70.50862098 124.29242875 -73.3203125 124.80859375 C-86.50514862 127.28375608 -100.14296755 130.84012769 -112.09594727 137.09716797 C-115.42638085 138.67633753 -118.62568187 138.36379009 -122.125 137.4375 C-125.05142587 135.19390683 -126.6688787 132.37217395 -128 129 C-128.64566886 123.7424107 -127.9346639 120.40199585 -125 116 C-122.51242347 113.42706546 -119.80533524 111.21719507 -117 109 C-116.19433594 108.33613281 -115.38867188 107.67226562 -114.55859375 106.98828125 C-107.30438206 101.31248224 -99.57971607 98.07722936 -91 95 C-89.43579839 94.42947962 -87.87201063 93.85782356 -86.30859375 93.28515625 C-85.50752197 92.9922168 -84.7064502 92.69927734 -83.88110352 92.39746094 C-80.67292141 91.21919364 -77.47056326 90.02549476 -74.26855469 88.83056641 C-72.12862732 88.04709321 -69.9775605 87.30830386 -67.8203125 86.57421875 C-61.23987944 84.39084656 -61.23987944 84.39084656 -56.53515625 79.61328125 C-55.93807702 77.89892072 -55.39529433 76.16447718 -54.9140625 74.4140625 C-53.34288453 70.26454119 -49.92322496 67.88498699 -46 66 C-44.68 66 -43.36 66 -42 66 C-41.81824219 65.29875 -41.63648437 64.5975 -41.44921875 63.875 C-39.14602269 55.18191128 -39.14602269 55.18191128 -37.5 51.0625 C-36.23479245 47.88984757 -35.51203281 44.77921726 -34.8125 41.4375 C-33.24099715 34.82374201 -30.2492426 29.3172472 -26.9375 23.4453125 C-25.73193786 21.3015508 -24.58118759 19.12480361 -23.51953125 16.90625 C-18.87182004 8.01705426 -11.13701704 -3.50609796 0 0 Z M-7 9 C-8.70807037 10.77281672 -10.15429734 12.47950263 -11.625 14.4375 C-12.27879639 15.30507935 -12.27879639 15.30507935 -12.94580078 16.19018555 C-20.33022482 26.29539756 -26.03703582 36.87516203 -28.6015625 49.1730957 C-29.62927369 54.00129729 -31.26366252 58.08473481 -33.375 62.5 C-35.89895359 68.01170159 -35.89895359 68.01170159 -35.375 73.875 C-34.92125 74.90625 -34.4675 75.9375 -34 77 C-29.08808557 76.9730854 -24.67733638 76.5556085 -20 75 C-17.26570542 72.09829963 -16.15704318 68.85153517 -14.828125 65.13037109 C-13.84670779 62.60565217 -12.68807894 60.20378269 -11.5 57.76953125 C-4.57685283 43.50396035 -4.57685283 43.50396035 -2 28 C-1.94585937 27.113125 -1.89171875 26.22625 -1.8359375 25.3125 C-1.64562057 19.63759524 -2.52079905 14.46776064 -4 9 C-4.99 9 -5.98 9 -7 9 Z M151.0859375 20.11328125 C125.69276144 20.76384647 125.69276144 20.76384647 104 33 C97.34968404 40.71293377 82 59.48215926 82 70 C82.71234299 69.99111755 83.42468597 69.98223511 84.15861511 69.9730835 C91.0219249 69.89141841 97.88515824 69.83129049 104.74883556 69.79275131 C108.27377468 69.77226903 111.79829824 69.74472036 115.32299805 69.69824219 C137.90549078 69.40862351 159.47033488 71.11403989 181.66496277 75.73431396 C185.66108862 76.18900258 188.27311419 75.02938631 191.53125 72.8203125 C192.17707031 72.38589844 192.82289063 71.95148438 193.48828125 71.50390625 C194.48408203 70.82134766 194.48408203 70.82134766 195.5 70.125 C196.49580078 69.45404297 196.49580078 69.45404297 197.51171875 68.76953125 C198.79195117 67.9032662 200.06489718 67.02610862 201.3293457 66.13696289 C203 65 203 65 205.44921875 63.69140625 C207.60028657 61.34527938 207.50188999 59.18678098 207.45605469 56.09741211 C207.07458883 47.39191004 207.07458883 47.39191004 202.25 40.4375 C200.53977028 39.23311288 198.78579409 38.08920774 197 37 C195.62134766 36.04480469 195.62134766 36.04480469 194.21484375 35.0703125 C187.66536032 30.72652607 180.74541772 27.29741836 173.625 24 C172.78090576 23.60176025 171.93681152 23.20352051 171.06713867 22.79321289 C164.1397596 19.68655879 158.57188904 19.98896078 151.0859375 20.11328125 Z M459 51 C454.92805317 57.10792024 455.77199859 65.2109144 455.61328125 72.33984375 C455.58775681 73.42076797 455.56223236 74.5016922 455.53593445 75.6153717 C455.48410323 77.89383842 455.43465616 80.17236048 455.38745117 82.45092773 C455.31281785 85.9227142 455.22208866 89.39384955 455.13085938 92.86523438 C455.08234052 95.08591603 455.03478257 97.30661893 454.98828125 99.52734375 C454.95922195 100.55778305 454.93016266 101.58822235 454.90022278 102.64988708 C454.79895941 108.49376137 455.2958606 113.40127962 457 119 C464.59087502 105.77787404 463.50542477 88.5233694 463.25 73.875 C463.22987254 71.83725745 463.21163299 69.79949535 463.1953125 67.76171875 C463.15188484 62.84064962 463.08321472 57.92055047 463 53 C461.68 52.34 460.36 51.68 459 51 Z M385.02392578 69.06811523 C380.00729903 78.53320047 381.76462143 92.3588167 381.875 102.8125 C381.88505886 104.4876248 381.89417953 106.16275552 381.90234375 107.83789062 C381.92410645 111.89207629 381.95847263 115.9459706 382 120 C385.58133836 121.11205912 388.9281706 121.12924529 392.6640625 121.1328125 C394.59378906 121.13474609 394.59378906 121.13474609 396.5625 121.13671875 C397.56216797 121.13357666 397.56216797 121.13357666 398.58203125 121.13037109 C400.6250749 121.1249998 402.66790049 121.13033733 404.7109375 121.13671875 C405.99484375 121.13542969 407.27875 121.13414063 408.6015625 121.1328125 C409.78057129 121.13168457 410.95958008 121.13055664 412.17431641 121.12939453 C414.95061842 121.19378681 414.95061842 121.19378681 417 120 C418.75944009 114.72167974 418.18463933 109.08645495 418.1875 103.5625 C418.20586914 101.70141602 418.20586914 101.70141602 418.22460938 99.80273438 C418.22654297 98.61099609 418.22847656 97.41925781 418.23046875 96.19140625 C418.23457764 95.10029541 418.23868652 94.00918457 418.24291992 92.88500977 C418.00407609 90.0484092 417.46930571 88.40468239 416 86 C414.68 86 413.36 86 412 86 C410.29220027 84.37550757 408.62449243 82.70779973 407 81 C406.01 80.67 405.02 80.34 404 80 C403.7525 79.319375 403.505 78.63875 403.25 77.9375 C400.95863001 72.55278052 397.32026034 67.97450934 391.875 65.6875 C388.7652358 66.02551785 387.07585835 66.65294729 385.02392578 69.06811523 Z M199.375 72.875 C198.14910156 73.67550781 198.14910156 73.67550781 196.8984375 74.4921875 C196.27195312 74.98976563 195.64546875 75.48734375 195 76 C195 76.66 195 77.32 195 78 C198.63 78.33 202.26 78.66 206 79 C206 76.03 206 73.06 206 70 C203.15178304 70 201.7305421 71.31211651 199.375 72.875 Z M116 72 C116.78375 72.78375 117.5675 73.5675 118.375 74.375 C119.91666667 75.91666667 121.45833333 77.45833333 123 79 C123.61875 77.7625 123.61875 77.7625 124.25 76.5 C125.11625 75.2625 125.11625 75.2625 126 74 C127.32 74 128.64 74 130 74 C131.76462683 77.08809695 132 78.23312136 132 82 C131.38125 82.061875 130.7625 82.12375 130.125 82.1875 C127.72238859 82.828919 127.72238859 82.828919 126.75 85.5625 C126.5025 86.366875 126.255 87.17125 126 88 C118.05688073 87.66055046 118.05688073 87.66055046 114.5 85.4375 C112.32761203 81.90736955 112.20033619 79.14028123 112 75 C112.33 74.34 112.66 73.68 113 73 C102.77 73 92.54 73 82 73 C80.49989591 76.75026022 79.6719562 79.18173647 79.1484375 83.01953125 C79.01953125 83.95990234 78.890625 84.90027344 78.7578125 85.86914062 C78.63148438 86.84044922 78.50515625 87.81175781 78.375 88.8125 C78.2409375 89.77220703 78.106875 90.73191406 77.96875 91.72070312 C77.23556593 97.20087999 76.85608157 102.47222408 77 108 C80.41656024 108.16677282 80.41656024 108.16677282 84 108 C84.66 107.34 85.32 106.68 86 106 C88.61580479 106.3269756 90.64078137 106.82039068 93 108 C94.4477771 108.1344906 95.90119652 108.21076295 97.35449219 108.25634766 C98.25592957 108.28532135 99.15736694 108.31429504 100.08612061 108.34414673 C104.21540709 108.44165642 108.34452693 108.51567757 112.47460938 108.56982422 C114.65141979 108.6064938 116.82800494 108.66107369 119.00390625 108.73388672 C122.14404488 108.83738157 125.28029322 108.88175824 128.421875 108.9140625 C129.39082703 108.95737701 130.35977905 109.00069153 131.35809326 109.0453186 C134.17343315 109.03747081 136.33732686 108.92480421 139 108 C141.01568932 105.90449106 142.33453632 103.86103741 143.70347595 101.30130005 C148.1965783 93.32614782 156.58510761 90.0054718 164.6875 86.75 C166.71349119 85.91448687 168.73827647 85.07604229 170.76171875 84.234375 C171.64819092 83.87569336 172.53466309 83.51701172 173.44799805 83.14746094 C176.10714241 81.95182538 178.53076365 80.54608213 181 79 C180.505 78.01 180.505 78.01 180 77 C177.43362366 76.35714255 177.43362366 76.35714255 174.30859375 75.9765625 C172.53524658 75.7295459 172.53524658 75.7295459 170.72607422 75.47753906 C152.44090368 73.13408515 134.44526903 71.48710374 116 72 Z M69 73 C69.99 76.3 70.98 79.6 72 83 C72.33 83 72.66 83 73 83 C73.33 80.03 73.66 77.06 74 74 C72.35 73.67 70.7 73.34 69 73 Z M10.45068359 74.171875 C8.34171046 74.37825769 6.23167263 74.56863168 4.12109375 74.7578125 C2.75511954 74.88708596 1.38923017 75.01725991 0.0234375 75.1484375 C-1.18393066 75.26364746 -2.39129883 75.37885742 -3.63525391 75.49755859 C-9.79395044 76.26775907 -9.79395044 76.26775907 -14.50390625 79.88842773 C-14.85324219 80.64583252 -15.20257813 81.4032373 -15.5625 82.18359375 C-15.9642041 83.02438477 -16.3659082 83.86517578 -16.77978516 84.73144531 C-17.18245605 85.62444336 -17.58512695 86.51744141 -18 87.4375 C-18.86051063 89.25460242 -19.722482 91.07101383 -20.5859375 92.88671875 C-20.99682617 93.76505371 -21.40771484 94.64338867 -21.83105469 95.54833984 C-24.02151353 100.14244756 -26.51613135 104.55956754 -29 109 C-28.15429443 108.9285376 -27.30858887 108.8570752 -26.43725586 108.78344727 C-15.46821414 107.94564106 -4.55894925 107.88367052 6.4375 107.9375 C8.24804562 107.94253065 10.05859261 107.94709076 11.86914062 107.95117188 C16.24612846 107.96204063 20.62304848 107.97921675 25 108 C25.39759521 107.0510083 25.79519043 106.1020166 26.20483398 105.12426758 C26.73924014 103.86011251 27.27383688 102.596038 27.80859375 101.33203125 C28.06910522 100.70880981 28.3296167 100.08558838 28.59802246 99.44348145 C30.92625395 93.95820403 33.83813621 89.03023784 37 84 C37.99340378 82.34177985 38.97329759 80.67536827 39.9375 79 C40.35902344 78.278125 40.78054687 77.55625 41.21484375 76.8125 C41.47394531 76.214375 41.73304688 75.61625 42 75 C41.505 74.01 41.505 74.01 41 73 C30.74160818 72.82991445 20.66170386 73.16552948 10.45068359 74.171875 Z M54 75 C48.7005849 82.02208999 45.32695593 89.55636439 42.26171875 97.71484375 C41 101 41 101 39.83203125 103.25390625 C38.78491563 105.12900802 38.78491563 105.12900802 39 108 C45.27 108 51.54 108 58 108 C58.08151175 104.18706166 58.14075085 100.37589477 58.1875 96.5625 C58.21263672 95.49322266 58.23777344 94.42394531 58.26367188 93.32226562 C58.32502682 86.63457674 57.6266193 81.17418403 55 75 C54.67 75 54.34 75 54 75 Z M560 76 C553.25873366 90.14070366 550.07488643 104.69314778 547 120 C554.92 120 562.84 120 571 120 C570.54625 117.875625 570.0925 115.75125 569.625 113.5625 C569.35042969 112.27601562 569.07585938 110.98953125 568.79296875 109.6640625 C568.1980028 106.9149095 567.57852434 104.17595599 566.9375 101.4375 C566.10786081 97.79252782 565.58037898 94.13906124 565.0625 90.4375 C564.29961085 85.23764754 563.07799296 80.81716549 561 76 C560.67 76 560.34 76 560 76 Z M-29.125 80 C-30.03507812 80.185625 -30.94515625 80.37125 -31.8828125 80.5625 C-32.58148438 80.706875 -33.28015625 80.85125 -34 81 C-35.84532714 86.47059581 -36.25309068 91.18819928 -36.125 96.9375 C-36.11597656 97.71673828 -36.10695313 98.49597656 -36.09765625 99.29882812 C-36.07433691 101.19935447 -36.03847586 103.09972008 -36 105 C-33.81326802 102.97278175 -32.37769478 101.124438 -31.0625 98.453125 C-30.55589844 97.4321875 -30.55589844 97.4321875 -30.0390625 96.390625 C-29.69617188 95.68421875 -29.35328125 94.9778125 -29 94.25 C-28.65710938 93.5590625 -28.31421875 92.868125 -27.9609375 92.15625 C-25.8285955 87.82645632 -23.86448937 83.45146836 -22 79 C-24.47675731 79 -26.69859695 79.5022763 -29.125 80 Z M180 85 C175.33107947 88.0198578 170.63348607 90.75506952 165.65600586 93.234375 C158.42840481 96.84858474 151.96914978 100.3969264 147 107 C147 107.33 147 107.66 147 108 C148.06847168 108.02505615 149.13694336 108.0501123 150.23779297 108.07592773 C154.2448902 108.17090627 158.25185006 108.27089682 162.25878906 108.37231445 C163.98499309 108.41532458 165.71123046 108.45701948 167.4375 108.49731445 C184.41207566 108.89515607 184.41207566 108.89515607 192.12060547 109.79272461 C194.46225288 110.05098112 196.77062895 110.10047373 199.125 110.0625 C201.043125 110.0315625 201.043125 110.0315625 203 110 C206.13732502 101.12077826 209.09917196 91.29751589 206 82 C195.7862329 77.67262649 188.97339102 79.13000695 180 85 Z M71 84 C72 88 72 88 72 88 Z M214 84 C213.87882812 85.19496094 213.75765625 86.38992187 213.6328125 87.62109375 C213.46381278 89.22659106 213.29452655 90.83205823 213.125 92.4375 C213.04636719 93.22060547 212.96773438 94.00371094 212.88671875 94.81054688 C212.29790807 100.31366208 211.31051976 105.623653 210 111 C211.04619507 111.10489746 211.04619507 111.10489746 212.11352539 111.21191406 C215.43076447 111.5495272 218.7465654 111.8998142 222.0625 112.25 C223.15755859 112.35957031 224.25261719 112.46914062 225.38085938 112.58203125 C230.97703583 113.18105859 236.4662094 113.86017754 241.97827148 114.99316406 C258.36581336 118.30850167 274.26018175 118.46607233 290.9375 118.25 C293.67510697 118.22753658 296.41273947 118.21135708 299.15039062 118.1953125 C305.76725122 118.15184663 312.38355457 118.0854116 319 118 C316.28390082 115.28390082 313.13404955 114.53079778 309.5625 113.375 C308.88123047 113.14554688 308.19996094 112.91609375 307.49804688 112.6796875 C304.55017182 111.70957387 302.12333158 111 299 111 C298.505 110.01 298.505 110.01 298 109 C295.67031324 108.6420682 293.33603721 108.31382434 291 108 C288.44092005 107.24924994 285.94262818 106.46289282 283.42578125 105.59375 C282.71214417 105.35301254 281.99850708 105.11227509 281.26324463 104.86424255 C279.73607753 104.34849925 278.20980114 103.83011207 276.68435669 103.30929565 C273.46926245 102.21228089 270.24927538 101.12999983 267.02940369 100.04710388 C265.39302087 99.49673319 263.75684158 98.94575697 262.12086487 98.3941803 C254.61545361 95.86458658 247.09658063 93.3804803 239.5625 90.9375 C238.47686768 90.58042969 237.39123535 90.22335938 236.27270508 89.85546875 C228.92961072 87.48323356 221.54249953 85.62594181 214 84 Z M-52 86 C-52.66 86.66 -53.32 87.32 -54 88 C-55.8253125 88.37125 -55.8253125 88.37125 -57.6875 88.75 C-76.61532731 92.68069896 -101.09664788 104.69350896 -115 118 C-115 118.66 -115 119.32 -115 120 C-115.61875 120.28875 -116.2375 120.5775 -116.875 120.875 C-119.13325765 121.93720042 -119.13325765 121.93720042 -121 124 C-120.81242938 127.82564665 -120.81242938 127.82564665 -119 131 C-112.62284735 130.57389354 -107.17101526 128.84031099 -101.1875 126.6875 C-91.24342519 123.24653443 -81.34246598 120.8713907 -71 119 C-70.18289551 118.85046875 -69.36579102 118.7009375 -68.52392578 118.546875 C-63.68777961 117.6663681 -58.84689173 116.81919297 -54 116 C-52.72644646 112.17933938 -52.41457868 108.35884196 -52 104.375 C-51.83333333 102.8203125 -51.66666667 101.265625 -51.5 99.7109375 C-51.41878906 98.94233398 -51.33757812 98.17373047 -51.25390625 97.38183594 C-50.84930764 93.58638977 -50.42400412 89.79332259 -50 86 C-50.66 86 -51.32 86 -52 86 Z M597.859375 90.8046875 C591.73198514 98.03912679 589.57965551 109.06488034 587 118 C597.00955661 118.41588478 606.92340419 117.30568523 616.87182617 116.34594727 C619.82224671 116.06156053 622.77332688 115.785049 625.72460938 115.50976562 C627.61462657 115.33118613 629.50460211 115.15216522 631.39453125 114.97265625 C632.26962845 114.89032242 633.14472565 114.80798859 634.04634094 114.72315979 C638.40014304 114.30089996 642.69329665 113.78825509 647 113 C644.84182934 110.84182934 643.2882997 110.23164465 640.5 109.0625 C633.8482976 105.84799462 627.34317642 99.68635285 624 93 C623.34 93 622.68 93 622 93 C621.71125 92.401875 621.4225 91.80375 621.125 91.1875 C619.95257974 88.80672208 619.95257974 88.80672208 618 86 C610.54204605 84.00233376 603.79605685 85.7996747 597.859375 90.8046875 Z M70 88 C70 90.31 70 92.62 70 95 C70.33 95 70.66 95 71 95 C71 92.69 71 90.38 71 88 C70.67 88 70.34 88 70 88 Z M503 93 C502.67 94.32 502.34 95.64 502 97 C502.99 97 503.98 97 505 97 C505 95.68 505 94.36 505 93 C504.34 93 503.68 93 503 93 Z M-45 100 C-45.95261487 104.76307437 -46.08333357 109.1666528 -46 114 C-45.34 114 -44.68 114 -44 114 C-44 109.38 -44 104.76 -44 100 C-44.33 100 -44.66 100 -45 100 Z M-33 115 C-38.41756412 122.17532101 -38.51327289 133.27436084 -38 142 C-37.67 142.33 -37.34 142.66 -37 143 C-36.97894246 145.75552907 -37.00691697 148.495861 -37.0625 151.25 C-37.15596123 159.05557006 -36.51873226 166.32497805 -35 174 C-31.71267622 174.34594178 -31.71267622 174.34594178 -29.19140625 171.30859375 C-24.99061849 166.15066448 -22.57789482 160.1166698 -19.9375 154.0625 C-16.96375075 147.31920944 -14.06387537 140.80610527 -10.01147461 134.63891602 C-8.68661965 132.49222247 -7.95036245 130.37112806 -7.3125 127.9375 C-7.08175781 127.10089844 -6.85101563 126.26429687 -6.61328125 125.40234375 C-6.22880369 123.89626923 -5.85025963 122.38865396 -5.48046875 120.87890625 C-4.28070175 116.1871345 -4.28070175 116.1871345 -1 114 C4.19789411 113.2982435 8.69250967 113.41629896 13.5 115.5625 C18.06884868 120.01712747 19.15987529 123.93343276 19.25 130.125 C19.11120476 135.42113417 18.65137351 140.68696699 18.12109375 145.95703125 C17.99508235 149.1235757 18.37460995 151.90084485 19 155 C24.13253972 149.86746028 24.19998451 141.21937637 24.29296875 134.36328125 C24.27327348 131.67815965 24.23857189 128.99682595 24.1875 126.3125 C24.17241097 124.91733232 24.15873009 123.52214866 24.14648438 122.12695312 C24.11143868 118.75088416 24.06230508 115.37565724 24 112 C5.81038736 109.21541732 -15.36827184 109.12275728 -33 115 Z M95 111 C94.15612472 115.21937639 93.98924151 117.67856058 94.4375 121.8125 C94.53933594 122.78832031 94.64117187 123.76414062 94.74609375 124.76953125 C94.82988281 125.50558594 94.91367188 126.24164063 95 127 C96.19806438 124.60905766 97.38535008 122.21388584 98.5625 119.8125 C101.14292545 116.83508602 101.69304243 116.47525191 105.375 115.875 C110.03321176 115.6684783 112.49925401 116.8249048 116 120 C119.31462526 124.14328158 120.60852177 127.93104359 122 133 C124.40545638 134.20272819 125.94996953 134.10071472 128.625 134.0625 C129.44226563 134.05347656 130.25953125 134.04445312 131.1015625 134.03515625 C131.72804688 134.02355469 132.35453125 134.01195312 133 134 C133.03738281 132.80761719 133.07476562 131.61523438 133.11328125 130.38671875 C133.17894032 128.820281 133.24538768 127.25387616 133.3125 125.6875 C133.33505859 124.90181641 133.35761719 124.11613281 133.38085938 123.30664062 C133.41630859 122.54931641 133.45175781 121.79199219 133.48828125 121.01171875 C133.51446533 120.31522217 133.54064941 119.61872559 133.56762695 118.90112305 C134.11314553 116.50250465 135.23514786 115.6521458 137 114 C137 113.34 137 112.68 137 112 C123.14 111.67 109.28 111.34 95 111 Z M37 112 C35.40972454 124.3602758 35.40972454 124.3602758 34.24609375 136.765625 C34 139 34 139 33.4453125 140.875 C32.8099634 143.90684131 33.1606342 146.67371331 33.4375 149.75 C33.53933594 150.92046875 33.64117187 152.0909375 33.74609375 153.296875 C33.82988281 154.18890625 33.91367188 155.0809375 34 156 C40.80327576 156.26679513 45.21128901 155.85914066 51 152 C51 151.34 51 150.68 51 150 C52.485 149.505 52.485 149.505 54 149 C53.28360801 145.71156462 53.28360801 145.71156462 50 144.375 C48.515 143.694375 48.515 143.694375 47 143 C46.67 142.67 46.34 142.34 46 142 C46.0625 138.6875 46.0625 138.6875 47 135 C50.70324815 131.81348415 54.40467137 130.47179057 59 129 C59.02709444 126.91673869 59.04643873 124.83337559 59.0625 122.75 C59.07990234 121.00976562 59.07990234 121.00976562 59.09765625 119.234375 C59.11006257 115.83633451 59.11006257 115.83633451 58 112 C51.07 112 44.14 112 37 112 Z M78 112 C78 114.31 78 116.62 78 119 C78.66 119 79.32 119 80 119 C80.66 116.69 81.32 114.38 82 112 C80.68 112 79.36 112 78 112 Z M145 112 C144.7428219 117.78197238 144.7428219 117.78197238 147 122.9375 C147.66 123.948125 148.32 124.95875 149 126 C153.5499668 125.78420202 158.09887455 125.55346914 162.64746094 125.31030273 C164.18697757 125.22993984 165.72669386 125.15329435 167.26660156 125.08081055 C184.59723608 124.70969081 184.59723608 124.70969081 201 120 C201 118.35 201 116.7 201 115 C188.1043731 110.92404599 173.91027009 111.85840537 160.5 111.9375 C158.98307443 111.94253584 157.4661472 111.94709499 155.94921875 111.95117188 C152.2994436 111.96198764 148.64973321 111.97913154 145 112 Z M500 112 C498.9463606 113.30756357 497.93146366 114.64651756 496.9375 116 C496.38964844 116.7425 495.84179688 117.485 495.27734375 118.25 C494.64505859 119.11625 494.64505859 119.11625 494 120 C496.31 120 498.62 120 501 120 C501 117.36 501 114.72 501 112 C500.67 112 500.34 112 500 112 Z M70 113 C70 115.64 70 118.28 70 121 C70.33 121 70.66 121 71 121 C71 118.36 71 115.72 71 113 C70.67 113 70.34 113 70 113 Z M209 116 C208.67 116.99 208.34 117.98 208 119 C213.94 118.505 213.94 118.505 220 118 C220 117.67 220 117.34 220 117 C216.37 116.67 212.74 116.34 209 116 Z M-48 119 C-51.44572039 125.31715405 -51.31461385 130.90370975 -51 138 C-46.45035337 132.26846192 -44.74956859 126.19585846 -44 119 C-45.32 119 -46.64 119 -48 119 Z M70 122 C69.67 125.3 69.34 128.6 69 132 C70.98 132.99 70.98 132.99 73 134 C75.28784083 131.25799558 75.28784083 131.25799558 74.75 128.5625 C74.05282249 126.18047686 73.20252143 124.16453858 72 122 C71.34 122 70.68 122 70 122 Z M207 123 C206.49242138 124.41396902 205.99425075 125.83131729 205.5 127.25 C205.2215625 128.03890625 204.943125 128.8278125 204.65625 129.640625 C203.82135139 132.23412738 203.82135139 132.23412738 204 136 C220.93994936 138.56042419 238.07361168 139.28925978 255.17861938 139.83666992 C257.18102706 139.90377226 259.18316207 139.9795895 261.18490601 140.06420898 C264.0332577 140.18157549 266.88072302 140.26494301 269.73046875 140.33984375 C270.59103882 140.38116928 271.45160889 140.42249481 272.33825684 140.46507263 C276.87373751 140.54419637 278.43137459 140.46556685 282.0793457 137.47875977 C283.03006958 136.25177368 283.03006958 136.25177368 284 135 C282.96654685 132.00298586 282.1483883 131.08544897 279.35571289 129.47729492 C273.32548202 126.82258943 266.85833634 125.67493981 260.4375 124.3125 C259.33127289 124.07613327 259.33127289 124.07613327 258.20269775 123.83499146 C240.7728376 120.16610735 224.56313246 119.97838581 207 123 Z M343 123 C347.91052835 125.62325593 353.19231474 127.01502395 358.5 128.625 C359.54542969 128.94984375 360.59085937 129.2746875 361.66796875 129.609375 C362.67472656 129.91617188 363.68148438 130.22296875 364.71875 130.5390625 C365.63591797 130.81959473 366.55308594 131.10012695 367.49804688 131.38916016 C370.2184039 132.15811918 370.2184039 132.15811918 374 132 C374 129.36 374 126.72 374 124 C367.10381142 123.09429581 360.38791455 122.8777016 353.4375 122.9375 C351.92446289 122.94426758 351.92446289 122.94426758 350.38085938 122.95117188 C347.92050853 122.96283231 345.46028761 122.97919622 343 123 Z M426 123 C424.68244248 129.71669317 424.91642871 136.3500101 425.07714844 143.1550293 C425.10870785 144.66038105 425.13009486 146.16598515 425.140625 147.67163086 C425.2163872 158.42157612 426.3306498 168.15434639 431 178 C433.74390719 180.2550547 433.74390719 180.2550547 436.48046875 179.89453125 C441.59976897 178.07698125 443.69824431 172.6459031 446 168 C447.54223761 164.61601372 448.97790292 161.19621485 450.375 157.75 C450.72087158 156.89881592 451.06674316 156.04763184 451.4230957 155.1706543 C454.61141802 147.00232416 455.28590893 140.62087539 453.5625 132.0625 C453.41490234 131.28326172 453.26730469 130.50402344 453.11523438 129.70117188 C452.75344516 127.79886084 452.37811758 125.89913291 452 124 C443.31008699 123.20354316 434.72542301 122.87147495 426 123 Z M104 124 C103.26924352 126.3140622 102.59861742 128.64828869 102 131 C106.96920684 132.77759876 106.96920684 132.77759876 112 132 C111.52226908 127.70042176 110.29813355 125.78280018 107 123 C105.7763932 122.9254644 105.7763932 122.9254644 104 124 Z M382 124 C382 127.63 382 131.26 382 135 C382.99 135 383.98 135 385 135 C385 136.32 385 137.64 385 139 C384.34 139.33 383.68 139.66 383 140 C383 146.93 383 153.86 383 161 C387.53315718 162.37395348 387.53315718 162.37395348 389.8515625 161.27734375 C401.85741127 152.20684567 409.84379761 138.94084351 415 125 C414.505 124.01 414.505 124.01 414 123 C403.2983611 122.82708303 392.67910627 123.36850058 382 124 Z M464 124 C461.34494553 134.62021786 460.93967886 140.34106585 466 150 C466.66758732 151.33287261 467.33453264 152.66606769 468 154 C470.68572051 150.84522407 471.73529618 148.04175976 472.8125 144.0625 C474.88475195 136.95072482 477.77274818 130.67454353 481 124 C475.39 124 469.78 124 464 124 Z M493 124 C492.608125 125.0725 492.21625 126.145 491.8125 127.25 C488.97647366 134.78610756 486.02977985 142.19970305 482.125 149.25 C480.51584362 152.43243986 479.60619178 154.84883123 479.75 158.4375 C480.70871293 162.23708832 480.70871293 162.23708832 484.125 164.3125 C488.2837641 165.09786344 488.2837641 165.09786344 491.6875 163.3125 C495.25086429 160.34701562 496.62561802 156.92091994 498.078125 152.59765625 C499 150 499 150 500.59375 147.19140625 C502.29254414 143.33608733 502.37248874 140.0013394 502.25 135.875 C502.24484375 135.17246094 502.2396875 134.46992188 502.234375 133.74609375 C502.18334099 130.37146994 502.0365081 127.2265494 501 124 C498.36 124 495.72 124 493 124 Z M514 124 C513.32035388 126.33021526 512.65625814 128.66318891 512 131 C511.80921875 131.64839844 511.6184375 132.29679688 511.421875 132.96484375 C509.3050262 140.60061979 509.93889528 147.75680338 511 155.5 C511.09539063 156.22703125 511.19078125 156.9540625 511.2890625 157.703125 C511.52146167 159.46935867 511.76006638 161.23477406 512 163 C519.05777701 156.91570948 519.67079543 149.13088194 520.6875 140.375 C520.81705078 139.35148438 520.94660156 138.32796875 521.08007812 137.2734375 C521.62860721 132.81555035 522.07132162 128.49680276 522 124 C519.36 124 516.72 124 514 124 Z M195.4296875 125.5859375 C186.43495235 127.58257102 177.55956778 128.59036485 168.37524414 129.29150391 C161.95735334 129.79032308 155.74235499 130.56310076 149.42578125 131.828125 C146.64282551 132.02530705 145.33426988 131.46506868 143 130 C143 131.65 143 133.3 143 135 C160.16 135.33 177.32 135.66 195 136 C197.60573797 131.65710338 198.44665863 129.75873581 199 125 C197.72312237 124.96295642 197.72312237 124.96295642 195.4296875 125.5859375 Z M3 128 C1.86081171 129.65700115 0.73935319 131.32619603 -0.375 133 C-1.00148438 133.928125 -1.62796875 134.85625 -2.2734375 135.8125 C-5.79394414 142.31189687 -6.30331 148.71704214 -6.265625 155.953125 C-6.26753845 156.77576843 -6.2694519 157.59841187 -6.27142334 158.44598389 C-6.27277497 160.17037261 -6.26915059 161.89477187 -6.26074219 163.61914062 C-6.24997247 166.25674128 -6.2607003 168.89366945 -6.2734375 171.53125 C-6.2721168 173.21354316 -6.26955626 174.89583591 -6.265625 176.578125 C-6.26967346 177.36358704 -6.27372192 178.14904907 -6.27789307 178.95831299 C-6.24511734 182.77778479 -6.1597085 185.7636543 -4 189 C2.73586929 185.11392156 4.79183858 181.3503151 7 174 C7.2990625 173.02160156 7.598125 172.04320312 7.90625 171.03515625 C10.73924396 160.84424744 10.32734385 151.911813 8.1875 141.625 C8.02185547 140.74972656 7.85621094 139.87445313 7.68554688 138.97265625 C6.49003545 132.96093325 6.49003545 132.96093325 3 128 Z M124 141 C124.55795583 145.11418753 124.55795583 145.11418753 127.5625 146.75 C128.366875 147.1625 129.17125 147.575 130 148 C132.35953094 145.64046906 132.49141413 144.22104383 133 141 C130.03 141 127.06 141 124 141 Z M143 141 C146.1606391 154.28022919 153.66284157 164.24023102 165.21484375 171.50170898 C165.82457031 171.87239502 166.43429687 172.24308105 167.0625 172.625 C167.92875 173.17619507 167.92875 173.17619507 168.8125 173.73852539 C172.16719637 175.66262633 173.88535376 176.01649758 177.74609375 175.4609375 C181.11256802 173.94945926 182.3271593 173.22537437 184 170 C184.75319883 167.54198119 184.75319883 167.54198119 185.25 164.8125 C187.1589951 156.48515379 190.62039008 148.81476925 194 141 C191.69288807 139.84644403 190.37923726 139.87328413 187.81323242 139.87060547 C186.51629707 139.86587723 186.51629707 139.86587723 185.19316101 139.86105347 C184.25672256 139.8630777 183.32028412 139.86510193 182.35546875 139.8671875 C181.39353104 139.86623077 180.43159332 139.86527405 179.44050598 139.86428833 C177.40198705 139.86360691 175.36346595 139.86545852 173.32495117 139.86962891 C170.21072474 139.87496024 167.09664369 139.86969165 163.98242188 139.86328125 C162.00260385 139.86394238 160.02278591 139.86522427 158.04296875 139.8671875 C157.112603 139.86516327 156.18223724 139.86313904 155.22367859 139.86105347 C151.02354808 139.87620023 147.09321933 139.92505623 143 141 Z M65 147 C60.78837185 161.19544308 58.7368403 175.30154422 57.78686523 190.06152344 C56.99988812 201.52529699 55.08935889 212.71208877 53 224 C52.45425365 226.97843926 51.91225399 229.95751726 51.375 232.9375 C51.25334473 233.606604 51.13168945 234.27570801 51.00634766 234.96508789 C49.99609545 240.67196774 49.32437215 246.39977019 48.70532227 252.16064453 C48.28649891 255.950169 47.72144247 259.61007432 46.8125 263.3125 C46.05361671 266.75666263 46.01333755 267.83008446 47 271 C47.26627197 270.351521 47.53254395 269.70304199 47.80688477 269.03491211 C49.0551276 266.0009326 50.30838113 262.9690553 51.5625 259.9375 C52.01778076 258.83293457 52.47306152 257.72836914 52.94213867 256.59033203 C55.37627086 250.73074942 57.93263316 245.0264201 60.8125 239.375 C64.84125184 230.9477991 66.60531598 222.02794583 68.40014648 212.90307617 C68.81837062 210.87902116 69.27970822 208.8636026 69.77368164 206.85668945 C71.94768764 197.78705947 72.64702874 189.02425418 72.87329102 179.73999023 C72.93773496 177.30361702 73.03923671 174.8705443 73.14257812 172.43554688 C73.6625961 159.6613282 73.6625961 159.6613282 69 148 C66.94253572 147.1628845 66.94253572 147.1628845 65 147 Z " fill="#000000" transform="translate(128,1)"/>
<path d="M0 0 C11.71791074 2.0343595 22.8527649 5.47180508 34.0625 9.375 C35.11813644 9.74251877 35.11813644 9.74251877 36.19509888 10.11746216 C42.46473145 12.3066619 48.72323893 14.52589144 54.9609375 16.8046875 C66.03192506 20.84005458 77.29882156 23.96427017 88.66113281 27.07470703 C93.05327523 28.29189186 97.42913488 29.56235188 101.8059082 30.83349609 C107.86186137 32.58675378 113.92840058 34.30180493 120 36 C120.73144226 36.2046991 121.46288452 36.40939819 122.2164917 36.62030029 C142.68159468 42.33223364 162.85531447 47.47843549 184 50 C187.3779038 50.41044087 190.75577234 50.82109945 194.13330078 51.23461914 C196.23461645 51.48766958 198.33713966 51.73095948 200.44091797 51.96264648 C201.37564941 52.07036377 202.31038086 52.17808105 203.2734375 52.2890625 C204.09247559 52.37881348 204.91151367 52.46856445 205.75537109 52.56103516 C208.12207854 53.02387396 209.90460137 53.8253523 212 55 C211.67 56.32 211.34 57.64 211 59 C204.1461293 58.40053877 197.40004933 57.50515011 190.625 56.3125 C189.16308228 56.05629883 189.16308228 56.05629883 187.67163086 55.79492188 C179.60283759 54.34851503 171.57900495 52.71100481 163.5625 51 C162.45148926 50.76321533 161.34047852 50.52643066 160.19580078 50.2824707 C145.55790414 47.10514425 131.11042961 43.27681105 116.6875 39.25 C115.91562347 39.03511932 115.14374695 38.82023865 114.34848022 38.59884644 C93.79584257 32.87383286 73.33564224 26.95858548 53.18212891 19.94189453 C43.17792057 16.45961705 33.16345751 13.00735878 23.125 9.625 C22.18261475 9.30378174 21.24022949 8.98256348 20.26928711 8.65161133 C13.59022711 6.41423547 6.85338486 4.62234225 0 3 C0 2.01 0 1.02 0 0 Z " fill="#000000" transform="translate(740,48)"/>
<path d="M0 0 C13.77256643 0.54266906 27.3575075 2.05803183 41 4 C42.34795654 4.19070068 42.34795654 4.19070068 43.72314453 4.38525391 C68.15688346 7.96280787 92.1887434 14.55550798 116 21 C116 21.66 116 22.32 116 23 C108.41537975 22.42363569 101.23324364 20.707055 93.87866211 18.8482666 C69.20341656 12.63771191 44.66904875 7.6361327 19.37109375 4.859375 C12.86795571 4.13877757 6.43800774 3.16244952 0 2 C0 1.34 0 0.68 0 0 Z " fill="#000000" transform="translate(620,26)"/>
<path d="M0 0 C4.86196242 0.49187425 9.72797013 0.93332029 14.59570312 1.36376953 C15.09070313 2.84876953 15.09070313 2.84876953 15.59570312 4.36376953 C6.47982843 3.91375394 -2.61770703 3.38947715 -11.70898438 2.57470703 C-40.24403452 0.04270436 -67.48728107 0.79389197 -95.95947266 4.10424805 C-98.40429688 4.36376953 -98.40429688 4.36376953 -100.40429688 4.36376953 C-100.07429688 3.37376953 -99.74429687 2.38376953 -99.40429688 1.36376953 C-98.75589844 1.32638672 -98.1075 1.28900391 -97.43945312 1.25048828 C-91.94408094 0.88220447 -86.51729753 0.40219321 -81.06445312 -0.37060547 C-53.83193518 -4.17275353 -27.21258545 -2.77473912 0 0 Z " fill="#000000" transform="translate(603.404296875,23.63623046875)"/>
<path d="M0 0 C0.66 0 1.32 0 2 0 C2 0.66 2 1.32 2 2 C1.34 2 0.68 2 0 2 C0 1.34 0 0.68 0 0 Z " fill="#000000" transform="translate(737,48)"/>
</svg>
